<svg xmlns="http://www.w3.org/2000/svg" xmlns:xlink="http://www.w3.org/1999/xlink" width="500" zoomAndPan="magnify" viewBox="0 0 375 374.999991" height="500" preserveAspectRatio="xMidYMid meet" version="1.0"><defs><clipPath id="id1"><path d="M 61.625 72.609375 L 313.625 72.609375 L 313.625 302.109375 L 61.625 302.109375 Z M 61.625 72.609375 " clip-rule="nonzero"/></clipPath></defs><rect x="-37.5" width="450" fill="#ffffff" y="-37.499999" height="449.999989" fill-opacity="1"/><rect x="-37.5" width="450" fill="#ffffff" y="-37.499999" height="449.999989" fill-opacity="1"/><rect x="-37.5" width="450" fill="#ffffff" y="-37.499999" height="449.999989" fill-opacity="1"/><rect x="-37.5" width="450" fill="#ffffff" y="-37.499999" height="449.999989" fill-opacity="1"/><path fill="#c3d9e8" d="M 265.136719 0 L 375 109.863281 L 375 265.136719 L 265.136719 375 L 109.863281 375 L 0 265.136719 L 0 109.863281 L 109.863281 0 L 265.136719 0 " fill-opacity="1" fill-rule="nonzero"/><g clip-path="url(#id1)"><path fill="#2b5a7b" d="M 299.792969 72.609375 L 75.457031 72.609375 C 67.890625 72.609375 61.734375 78.757812 61.734375 86.308594 L 61.734375 228.554688 C 61.734375 236.109375 67.890625 242.25 75.457031 242.25 L 215.269531 242.25 C 216.554688 246.945312 218.675781 251.277344 221.480469 255.105469 C 213.964844 265.699219 208.039062 277.753906 203.882812 291 C 203.632812 291.796875 203.90625 292.664062 204.570312 293.175781 C 205.238281 293.683594 206.144531 293.726562 206.859375 293.28125 C 209.933594 291.351562 218.929688 286.582031 223.433594 287.691406 C 227.328125 288.652344 231.832031 296.25 233.753906 300.8125 C 234.066406 301.5625 234.800781 302.035156 235.59375 302.035156 C 235.703125 302.035156 235.816406 302.027344 235.929688 302.007812 C 236.847656 301.851562 237.535156 301.089844 237.589844 300.164062 C 238.230469 289.648438 241.285156 279.777344 246.617188 270.792969 C 248.867188 271.191406 251.167969 271.4375 253.53125 271.4375 C 255.894531 271.4375 258.199219 271.191406 260.449219 270.792969 C 265.777344 279.777344 268.828125 289.644531 269.472656 300.164062 C 269.53125 301.089844 270.21875 301.851562 271.132812 302.007812 C 271.246094 302.027344 271.359375 302.035156 271.46875 302.035156 C 272.261719 302.035156 272.996094 301.5625 273.3125 300.8125 C 275.234375 296.25 279.734375 288.652344 283.628906 287.691406 C 288.152344 286.582031 297.125 291.351562 300.207031 293.285156 C 300.914062 293.730469 301.832031 293.6875 302.492188 293.175781 C 303.15625 292.664062 303.429688 291.796875 303.179688 291 C 299.019531 277.75 293.09375 265.691406 285.585938 255.105469 C 288.386719 251.277344 290.507812 246.941406 291.796875 242.25 L 299.792969 242.25 C 307.363281 242.25 313.519531 236.105469 313.519531 228.554688 L 313.519531 86.308594 C 313.519531 78.757812 307.363281 72.609375 299.792969 72.609375 Z M 253.53125 192.203125 C 234.210938 192.203125 218.09375 206.042969 214.5625 224.304688 L 79.757812 224.304688 L 79.757812 90.554688 L 295.496094 90.554688 L 295.496094 224.304688 L 292.496094 224.304688 C 288.96875 206.042969 272.847656 192.203125 253.53125 192.203125 Z M 234.328125 293.210938 C 231.972656 289.308594 228.472656 284.828125 224.390625 283.820312 C 219.933594 282.71875 213.601562 285.214844 209.316406 287.355469 C 213.078125 276.769531 218.042969 267.039062 224.101562 258.320312 C 228.996094 263.722656 235.332031 267.78125 242.523438 269.855469 C 238.375 277.144531 235.621094 284.964844 234.328125 293.210938 Z M 217.820312 231.820312 C 217.820312 212.171875 233.839844 196.191406 253.53125 196.191406 C 273.21875 196.191406 289.238281 212.171875 289.238281 231.820312 C 289.238281 251.464844 273.21875 267.449219 253.53125 267.449219 C 233.839844 267.449219 217.820312 251.464844 217.820312 231.820312 Z M 297.746094 287.355469 C 293.460938 285.214844 287.136719 282.71875 282.667969 283.824219 C 278.585938 284.828125 275.085938 289.3125 272.730469 293.210938 C 271.4375 284.964844 268.683594 277.144531 264.535156 269.859375 C 271.726562 267.78125 278.066406 263.726562 282.957031 258.324219 C 289.015625 267.035156 293.984375 276.765625 297.746094 287.355469 Z M 309.523438 228.554688 C 309.523438 233.910156 305.15625 238.265625 299.792969 238.265625 L 292.664062 238.265625 C 293.011719 236.164062 293.234375 234.019531 293.234375 231.820312 C 293.234375 230.628906 293.160156 229.457031 293.054688 228.292969 L 297.492188 228.292969 C 298.597656 228.292969 299.492188 227.402344 299.492188 226.300781 L 299.492188 88.5625 C 299.492188 87.460938 298.597656 86.570312 297.492188 86.570312 L 77.757812 86.570312 C 76.652344 86.570312 75.761719 87.460938 75.761719 88.5625 L 75.761719 226.300781 C 75.761719 227.402344 76.652344 228.292969 77.757812 228.292969 L 214.003906 228.292969 C 213.902344 229.457031 213.824219 230.628906 213.824219 231.820312 C 213.824219 234.019531 214.050781 236.160156 214.398438 238.265625 L 75.457031 238.265625 C 70.09375 238.265625 65.730469 233.910156 65.730469 228.554688 L 65.730469 86.308594 C 65.730469 80.957031 70.09375 76.597656 75.457031 76.597656 L 299.792969 76.597656 C 305.15625 76.597656 309.523438 80.957031 309.523438 86.308594 Z M 309.523438 228.554688 " fill-opacity="1" fill-rule="nonzero"/></g><path fill="#2b5a7b" d="M 125.054688 121.484375 L 249.207031 121.484375 C 250.3125 121.484375 251.207031 120.59375 251.207031 119.492188 L 251.207031 101.445312 C 251.207031 100.34375 250.3125 99.453125 249.207031 99.453125 L 125.054688 99.453125 C 123.949219 99.453125 123.054688 100.34375 123.054688 101.445312 L 123.054688 119.492188 C 123.054688 120.59375 123.949219 121.484375 125.054688 121.484375 Z M 127.054688 103.4375 L 247.210938 103.4375 L 247.210938 117.5 L 127.054688 117.5 Z M 127.054688 103.4375 " fill-opacity="1" fill-rule="nonzero"/><path fill="#2b5a7b" d="M 273.511719 142.6875 L 106.210938 142.6875 C 105.109375 142.6875 104.214844 143.582031 104.214844 144.683594 C 104.214844 145.785156 105.109375 146.675781 106.210938 146.675781 L 273.511719 146.675781 C 274.617188 146.675781 275.507812 145.785156 275.507812 144.683594 C 275.507812 143.582031 274.613281 142.6875 273.511719 142.6875 Z M 273.511719 142.6875 " fill-opacity="1" fill-rule="nonzero"/><path fill="#2b5a7b" d="M 164.429688 166.601562 C 165.535156 166.601562 166.429688 165.710938 166.429688 164.609375 C 166.429688 163.507812 165.535156 162.613281 164.429688 162.613281 L 120.910156 162.613281 C 119.804688 162.613281 118.910156 163.507812 118.910156 164.609375 C 118.910156 165.710938 119.804688 166.601562 120.910156 166.601562 Z M 164.429688 166.601562 " fill-opacity="1" fill-rule="nonzero"/><path fill="#2b5a7b" d="M 263.714844 162.613281 L 194.839844 162.613281 C 193.734375 162.613281 192.839844 163.507812 192.839844 164.609375 C 192.839844 165.710938 193.734375 166.601562 194.839844 166.601562 L 263.714844 166.601562 C 264.816406 166.601562 265.710938 165.710938 265.710938 164.609375 C 265.710938 163.507812 264.816406 162.613281 263.714844 162.613281 Z M 263.714844 162.613281 " fill-opacity="1" fill-rule="nonzero"/><path fill="#2b5a7b" d="M 179.042969 198.175781 C 173.953125 196.21875 166.949219 196.503906 159.445312 199.011719 C 161.035156 193.675781 158.894531 191.554688 157.457031 190.761719 C 156.203125 190.070312 153.628906 188.648438 136.972656 198.359375 C 139.8125 192.589844 139.464844 190.164062 138.917969 188.824219 C 138.457031 187.683594 137.574219 186.875 136.375 186.492188 C 127.425781 183.640625 108.007812 204.265625 104.203125 208.429688 C 103.460938 209.246094 103.519531 210.507812 104.335938 211.25 C 104.71875 211.597656 105.203125 211.769531 105.679688 211.769531 C 106.222656 211.769531 106.765625 211.550781 107.15625 211.117188 C 115.898438 201.546875 130.363281 188.761719 135.203125 190.296875 C 135.210938 190.308594 135.976562 191.804688 132.6875 197.949219 C 131.9375 199.355469 132.207031 201.039062 133.359375 202.136719 C 134.515625 203.242188 136.210938 203.441406 137.59375 202.621094 C 149.578125 195.519531 154.578125 194.035156 155.519531 194.253906 C 156.296875 194.679688 156.046875 196.511719 155.550781 198.085938 C 155.128906 199.441406 155.492188 200.902344 156.503906 201.898438 C 157.539062 202.910156 159.039062 203.257812 160.421875 202.808594 C 167.238281 200.578125 173.34375 200.253906 177.605469 201.898438 C 178.640625 202.289062 179.792969 201.78125 180.1875 200.753906 C 180.585938 199.726562 180.070312 198.574219 179.042969 198.175781 Z M 179.042969 198.175781 " fill-opacity="1" fill-rule="nonzero"/><path fill="#2b5a7b" d="M 253.53125 201.261719 C 236.640625 201.261719 222.902344 214.96875 222.902344 231.820312 C 222.902344 248.671875 236.640625 262.378906 253.53125 262.378906 C 270.417969 262.378906 284.15625 248.671875 284.15625 231.820312 C 284.15625 214.96875 270.417969 201.261719 253.53125 201.261719 Z M 253.53125 258.390625 C 238.847656 258.390625 226.902344 246.472656 226.902344 231.820312 C 226.902344 217.167969 238.847656 205.25 253.53125 205.25 C 268.210938 205.25 280.160156 217.167969 280.160156 231.820312 C 280.160156 246.472656 268.214844 258.390625 253.53125 258.390625 Z M 253.53125 258.390625 " fill-opacity="1" fill-rule="nonzero"/><path fill="#2b5a7b" d="M 273.296875 223.460938 C 272.976562 222.738281 272.257812 222.269531 271.464844 222.269531 L 259.964844 222.269531 L 255.308594 213.15625 C 254.625 211.820312 252.433594 211.820312 251.75 213.15625 L 247.09375 222.269531 L 235.59375 222.269531 C 234.804688 222.269531 234.085938 222.734375 233.765625 223.460938 C 233.445312 224.183594 233.585938 225.027344 234.121094 225.609375 L 242.238281 234.4375 L 237.742188 245.488281 C 237.429688 246.261719 237.632812 247.152344 238.25 247.714844 C 238.871094 248.273438 239.777344 248.390625 240.519531 248.007812 L 253.535156 241.238281 L 266.546875 248.007812 C 266.839844 248.15625 267.15625 248.230469 267.472656 248.230469 C 267.957031 248.230469 268.4375 248.054688 268.816406 247.714844 C 269.4375 247.152344 269.636719 246.261719 269.324219 245.488281 L 264.828125 234.4375 L 272.945312 225.609375 C 273.476562 225.027344 273.613281 224.183594 273.296875 223.460938 Z M 261.023438 232.667969 C 260.5 233.238281 260.355469 234.050781 260.644531 234.765625 L 263.574219 241.964844 L 254.453125 237.222656 C 253.878906 236.921875 253.1875 236.921875 252.609375 237.222656 L 243.488281 241.964844 L 246.414062 234.769531 C 246.707031 234.054688 246.558594 233.238281 246.039062 232.671875 L 240.144531 226.257812 L 248.320312 226.257812 C 249.074219 226.257812 249.761719 225.835938 250.101562 225.167969 L 253.535156 218.453125 L 256.96875 225.167969 C 257.3125 225.835938 257.996094 226.257812 258.75 226.257812 L 266.929688 226.257812 Z M 261.023438 232.667969 " fill-opacity="1" fill-rule="nonzero"/></svg>