<svg xmlns="http://www.w3.org/2000/svg" xmlns:xlink="http://www.w3.org/1999/xlink" width="500" zoomAndPan="magnify" viewBox="0 0 375 374.999991" height="500" preserveAspectRatio="xMidYMid meet" version="1.0"><defs><clipPath id="id1"><path d="M 37.5 142 L 232 142 L 232 337 L 37.5 337 Z M 37.5 142 " clip-rule="nonzero"/></clipPath><clipPath id="id2"><path d="M 201 263 L 330.75 263 L 330.75 337.5 L 201 337.5 Z M 201 263 " clip-rule="nonzero"/></clipPath><clipPath id="id3"><path d="M 131 37.5 L 244 37.5 L 244 78 L 131 78 Z M 131 37.5 " clip-rule="nonzero"/></clipPath></defs><rect x="-37.5" width="450" fill="#ffffff" y="-37.499999" height="449.999989" fill-opacity="1"/><rect x="-37.5" width="450" fill="#ffffff" y="-37.499999" height="449.999989" fill-opacity="1"/><rect x="-37.5" width="450" fill="#ffffff" y="-37.499999" height="449.999989" fill-opacity="1"/><rect x="-37.5" width="450" fill="#ffffff" y="-37.499999" height="449.999989" fill-opacity="1"/><path fill="#c3d9e8" d="M 265.136719 0 L 375 109.863281 L 375 265.136719 L 265.136719 375 L 109.863281 375 L 0 265.136719 L 0 109.863281 L 109.863281 0 L 265.136719 0 " fill-opacity="1" fill-rule="nonzero"/><path fill="#2b5a7b" d="M 134.65625 193.363281 C 107.75 193.363281 85.863281 215.25 85.863281 242.15625 C 85.863281 269.058594 107.75 290.949219 134.65625 290.949219 C 161.558594 290.949219 183.449219 269.058594 183.449219 242.15625 C 183.449219 232.378906 180.566406 222.941406 175.113281 214.871094 C 173.695312 212.773438 170.84375 212.21875 168.746094 213.636719 C 166.648438 215.058594 166.09375 217.90625 167.511719 220.003906 C 171.9375 226.554688 174.277344 234.214844 174.277344 242.15625 C 174.277344 264.003906 156.503906 281.777344 134.65625 281.777344 C 112.808594 281.777344 95.035156 264.003906 95.035156 242.15625 C 95.035156 220.308594 112.808594 202.535156 134.65625 202.535156 C 137.1875 202.535156 139.242188 200.480469 139.242188 197.949219 C 139.242188 195.414062 137.1875 193.363281 134.65625 193.363281 Z M 134.65625 193.363281 " fill-opacity="1" fill-rule="nonzero"/><g clip-path="url(#id1)"><path fill="#2b5a7b" d="M 219.425781 285.664062 L 207.433594 273.671875 C 206.359375 272.59375 206.0625 270.929688 206.65625 269.503906 C 206.667969 269.476562 206.722656 269.347656 206.734375 269.320312 C 207.351562 267.828125 208.734375 266.859375 210.257812 266.859375 L 227.21875 266.859375 C 229.75 266.859375 231.800781 264.808594 231.800781 262.273438 L 231.800781 216.796875 C 231.800781 214.261719 229.75 212.210938 227.21875 212.210938 L 210.257812 212.210938 C 208.734375 212.210938 207.351562 211.246094 206.6875 209.640625 C 206.0625 208.140625 206.359375 206.476562 207.433594 205.398438 L 219.425781 193.40625 C 221.21875 191.613281 221.21875 188.710938 219.425781 186.921875 L 187.269531 154.761719 C 185.476562 152.972656 182.574219 152.972656 180.785156 154.761719 C 178.992188 156.554688 178.992188 159.457031 180.785156 161.25 L 209.699219 190.164062 L 200.949219 198.914062 C 197.238281 202.625 196.164062 208.21875 198.261719 213.261719 C 200.304688 218.191406 205.011719 221.382812 210.257812 221.382812 L 222.628906 221.382812 L 222.628906 257.6875 L 210.257812 257.6875 C 205.011719 257.6875 200.304688 260.878906 198.292969 265.730469 C 198.285156 265.753906 198.230469 265.886719 198.21875 265.910156 C 196.164062 270.851562 197.234375 276.445312 200.949219 280.15625 L 209.699219 288.90625 L 184.027344 314.582031 L 175.277344 305.832031 C 171.5625 302.117188 165.96875 301.042969 160.929688 303.140625 C 155.996094 305.183594 152.808594 309.894531 152.808594 315.136719 L 152.808594 327.511719 L 116.5 327.511719 L 116.5 315.136719 C 116.5 309.894531 113.3125 305.183594 108.28125 303.101562 C 103.339844 301.046875 97.746094 302.117188 94.03125 305.832031 L 85.28125 314.582031 L 59.609375 288.90625 L 68.359375 280.15625 C 72.074219 276.441406 73.144531 270.847656 71.050781 265.808594 C 69.003906 260.878906 64.296875 257.6875 59.054688 257.6875 L 46.679688 257.6875 L 46.679688 221.382812 L 59.054688 221.382812 C 64.296875 221.382812 69.007812 218.191406 71.089844 213.160156 C 73.144531 208.21875 72.074219 202.625 68.359375 198.910156 L 59.609375 190.164062 L 85.285156 164.488281 L 94.03125 173.238281 C 97.746094 176.953125 103.339844 178.027344 108.378906 175.929688 C 113.3125 173.886719 116.5 169.175781 116.5 163.933594 L 116.5 151.558594 L 152.808594 151.558594 L 152.808594 163.933594 C 152.808594 169.179688 155.996094 173.886719 160.929688 175.929688 C 162.582031 176.613281 164.238281 177.375 165.839844 178.195312 C 168.097656 179.34375 170.859375 178.445312 172.007812 176.191406 C 173.160156 173.933594 172.261719 171.171875 170.003906 170.023438 C 168.1875 169.09375 166.3125 168.230469 164.4375 167.457031 C 162.945312 166.835938 161.980469 165.453125 161.980469 163.933594 L 161.980469 146.972656 C 161.980469 144.441406 159.925781 142.386719 157.394531 142.386719 L 111.914062 142.386719 C 109.382812 142.386719 107.332031 144.441406 107.332031 146.972656 L 107.332031 163.933594 C 107.332031 165.453125 106.363281 166.835938 104.757812 167.5 C 103.261719 168.125 101.597656 167.832031 100.519531 166.753906 L 88.527344 154.761719 C 86.734375 152.972656 83.832031 152.972656 82.042969 154.761719 L 49.882812 186.917969 C 48.089844 188.710938 48.089844 191.613281 49.882812 193.40625 L 61.875 205.398438 C 62.953125 206.476562 63.246094 208.140625 62.636719 209.601562 C 62.632812 209.617188 62.582031 209.734375 62.574219 209.75 C 61.957031 211.246094 60.574219 212.210938 59.054688 212.210938 L 42.09375 212.210938 C 39.5625 212.210938 37.507812 214.261719 37.507812 216.796875 L 37.507812 262.273438 C 37.507812 264.808594 39.5625 266.859375 42.09375 266.859375 L 59.054688 266.859375 C 60.574219 266.859375 61.957031 267.824219 62.625 269.429688 C 63.246094 270.929688 62.953125 272.59375 61.875 273.671875 L 49.882812 285.664062 C 48.09375 287.453125 48.09375 290.359375 49.882812 292.148438 L 82.042969 324.308594 C 83.832031 326.097656 86.738281 326.097656 88.527344 324.308594 L 100.519531 312.316406 C 101.597656 311.234375 103.261719 310.945312 104.722656 311.550781 C 104.738281 311.558594 104.859375 311.609375 104.871094 311.613281 C 106.367188 312.234375 107.332031 313.617188 107.332031 315.136719 L 107.332031 332.097656 C 107.332031 334.628906 109.382812 336.683594 111.917969 336.683594 L 157.394531 336.683594 C 159.929688 336.683594 161.980469 334.628906 161.980469 332.097656 L 161.980469 315.136719 C 161.980469 313.613281 162.945312 312.234375 164.390625 311.632812 C 164.410156 311.625 164.535156 311.574219 164.554688 311.566406 C 166.050781 310.941406 167.714844 311.238281 168.792969 312.316406 L 180.785156 324.308594 C 181.644531 325.167969 182.8125 325.648438 184.027344 325.648438 C 185.242188 325.648438 186.410156 325.167969 187.269531 324.308594 L 219.429688 292.148438 C 221.21875 290.359375 221.21875 287.453125 219.425781 285.664062 Z M 219.425781 285.664062 " fill-opacity="1" fill-rule="nonzero"/></g><path fill="#2b5a7b" d="M 266.660156 225.71875 C 266.660156 241.996094 279.90625 255.242188 296.1875 255.242188 C 312.46875 255.242188 325.714844 241.996094 325.714844 225.71875 C 325.714844 209.4375 312.46875 196.191406 296.1875 196.191406 C 279.90625 196.191406 266.660156 209.4375 266.660156 225.71875 Z M 316.542969 225.71875 C 316.542969 236.941406 307.410156 246.070312 296.1875 246.070312 C 284.964844 246.070312 275.832031 236.941406 275.832031 225.71875 C 275.832031 214.492188 284.964844 205.363281 296.1875 205.363281 C 307.410156 205.363281 316.542969 214.492188 316.542969 225.71875 Z M 316.542969 225.71875 " fill-opacity="1" fill-rule="nonzero"/><g clip-path="url(#id2)"><path fill="#2b5a7b" d="M 326.15625 314.585938 C 328.6875 314.585938 330.742188 312.53125 330.742188 310 L 330.742188 298.515625 C 330.742188 279.460938 315.242188 263.960938 296.1875 263.960938 C 277.136719 263.960938 261.636719 279.460938 261.636719 298.515625 L 261.636719 328.042969 L 205.808594 328.042969 C 203.273438 328.042969 201.222656 330.09375 201.222656 332.628906 C 201.222656 335.160156 203.273438 337.214844 205.808594 337.214844 L 266 337.214844 C 266.074219 337.21875 266.144531 337.234375 266.222656 337.234375 L 326.15625 337.234375 C 328.6875 337.234375 330.742188 335.183594 330.742188 332.652344 C 330.742188 330.117188 328.6875 328.0625 326.15625 328.0625 L 270.808594 328.0625 L 270.808594 298.515625 C 270.808594 284.519531 282.191406 273.132812 296.1875 273.132812 C 310.183594 273.132812 321.570312 284.519531 321.570312 298.515625 L 321.570312 310 C 321.570312 312.53125 323.625 314.585938 326.15625 314.585938 Z M 326.15625 314.585938 " fill-opacity="1" fill-rule="nonzero"/></g><path fill="#2b5a7b" d="M 74.195312 139.519531 C 76.730469 139.519531 78.78125 137.464844 78.78125 134.933594 L 78.78125 57.824219 L 109.199219 57.824219 C 111.730469 57.824219 113.785156 55.773438 113.785156 53.238281 C 113.785156 50.707031 111.730469 48.65625 109.199219 48.65625 L 74.195312 48.65625 C 71.664062 48.65625 69.609375 50.707031 69.609375 53.238281 L 69.609375 134.933594 C 69.609375 137.46875 71.664062 139.519531 74.195312 139.519531 Z M 74.195312 139.519531 " fill-opacity="1" fill-rule="nonzero"/><path fill="#2b5a7b" d="M 264.980469 57.824219 L 296.074219 57.824219 L 296.074219 168.800781 C 296.074219 171.335938 298.128906 173.386719 300.660156 173.386719 C 303.191406 173.386719 305.246094 171.332031 305.246094 168.800781 L 305.246094 53.238281 C 305.246094 50.707031 303.191406 48.65625 300.660156 48.65625 L 264.980469 48.65625 C 262.449219 48.65625 260.394531 50.707031 260.394531 53.238281 C 260.394531 55.773438 262.449219 57.824219 264.980469 57.824219 Z M 264.980469 57.824219 " fill-opacity="1" fill-rule="nonzero"/><g clip-path="url(#id3)"><path fill="#2b5a7b" d="M 136.316406 77.574219 L 238.539062 77.574219 C 241.070312 77.574219 243.125 75.523438 243.125 72.988281 L 243.125 42.28125 C 243.125 39.75 241.070312 37.695312 238.539062 37.695312 L 136.316406 37.695312 C 133.785156 37.695312 131.734375 39.75 131.734375 42.28125 L 131.734375 72.988281 C 131.734375 75.523438 133.785156 77.574219 136.316406 77.574219 Z M 140.902344 46.867188 L 233.953125 46.867188 L 233.953125 68.402344 L 140.902344 68.402344 Z M 140.902344 46.867188 " fill-opacity="1" fill-rule="nonzero"/></g><path fill="#2b5a7b" d="M 134.65625 212.488281 C 132.121094 212.488281 130.070312 214.542969 130.070312 217.074219 L 130.070312 242.15625 C 130.070312 244.6875 132.121094 246.742188 134.65625 246.742188 L 151.386719 246.742188 C 153.917969 246.742188 155.972656 244.6875 155.972656 242.15625 C 155.972656 239.621094 153.917969 237.570312 151.386719 237.570312 L 139.242188 237.570312 L 139.242188 217.074219 C 139.242188 214.542969 137.1875 212.488281 134.65625 212.488281 Z M 134.65625 212.488281 " fill-opacity="1" fill-rule="nonzero"/><path fill="#2b5a7b" d="M 124.996094 113.664062 L 228.527344 113.664062 C 231.058594 113.664062 233.113281 111.613281 233.113281 109.078125 C 233.113281 106.546875 231.058594 104.492188 228.527344 104.492188 L 124.996094 104.492188 C 122.460938 104.492188 120.410156 106.546875 120.410156 109.078125 C 120.410156 111.609375 122.460938 113.664062 124.996094 113.664062 Z M 124.996094 113.664062 " fill-opacity="1" fill-rule="nonzero"/><path fill="#2b5a7b" d="M 228.527344 141.503906 L 207.5 141.503906 C 204.96875 141.503906 202.914062 143.554688 202.914062 146.089844 C 202.914062 148.621094 204.96875 150.675781 207.5 150.675781 L 228.527344 150.675781 C 231.058594 150.675781 233.113281 148.621094 233.113281 146.089844 C 233.113281 143.554688 231.058594 141.503906 228.527344 141.503906 Z M 228.527344 141.503906 " fill-opacity="1" fill-rule="nonzero"/><path fill="#2b5a7b" d="M 256.105469 118.816406 C 257 119.710938 258.175781 120.160156 259.347656 120.160156 C 260.519531 120.160156 261.695312 119.710938 262.589844 118.816406 L 275.582031 105.824219 C 277.371094 104.035156 277.371094 101.128906 275.582031 99.339844 C 273.789062 97.550781 270.882812 97.550781 269.097656 99.339844 L 259.347656 109.089844 L 255.484375 105.226562 C 253.691406 103.4375 250.789062 103.4375 249 105.226562 C 247.207031 107.019531 247.207031 109.921875 249 111.710938 Z M 256.105469 118.816406 " fill-opacity="1" fill-rule="nonzero"/><path fill="#2b5a7b" d="M 256.105469 155.828125 C 257 156.722656 258.175781 157.167969 259.347656 157.167969 C 260.519531 157.167969 261.695312 156.722656 262.589844 155.824219 L 275.582031 142.835938 C 277.371094 141.042969 277.371094 138.140625 275.582031 136.351562 C 273.789062 134.558594 270.882812 134.558594 269.097656 136.351562 L 259.347656 146.097656 L 255.484375 142.238281 C 253.691406 140.445312 250.789062 140.445312 249 142.238281 C 247.207031 144.027344 247.207031 146.933594 249 148.722656 Z M 256.105469 155.828125 " fill-opacity="1" fill-rule="nonzero"/></svg>