<svg xmlns="http://www.w3.org/2000/svg" xmlns:xlink="http://www.w3.org/1999/xlink" width="500" zoomAndPan="magnify" viewBox="0 0 375 374.999991" height="500" preserveAspectRatio="xMidYMid meet" version="1.0"><defs><clipPath id="id1"><path d="M 1 33 L 372 33 L 372 337.226562 L 1 337.226562 Z M 1 33 " clip-rule="nonzero"/></clipPath><clipPath id="id2"><path d="M 129.921875 161.023438 L 168 161.023438 L 168 246.769531 L 129.921875 246.769531 Z M 129.921875 161.023438 " clip-rule="nonzero"/></clipPath><clipPath id="id3"><path d="M 167.589844 161.03125 L 167.992188 161.230469 L 167.992188 178.671875 L 167.582031 179.476562 L 155.058594 188.621094 L 154.648438 189.425781 L 154.648438 199.164062 L 155.046875 199.359375 L 167.601562 189.570312 L 168 189.761719 L 168 207.722656 L 167.59375 208.527344 L 143.722656 226.164062 L 143.3125 226.972656 L 143.3125 231.589844 L 143.820312 232.09375 L 153.019531 232.09375 L 153.523438 232.601562 L 153.523438 236.320312 L 153.183594 237.199219 L 144.757812 246.386719 L 143.910156 246.761719 L 130.429688 246.761719 L 129.921875 246.253906 L 129.921875 219.894531 L 130.320312 219.078125 L 139.722656 211.761719 L 140.125 210.941406 L 140.125 182.730469 L 140.523438 181.914062 Z M 167.589844 161.03125 " clip-rule="nonzero"/></clipPath><clipPath id="id4"><path d="M 169.589844 123.148438 L 185.542969 123.148438 L 185.542969 218.328125 L 169.589844 218.328125 Z M 169.589844 123.148438 " clip-rule="nonzero"/></clipPath><clipPath id="id5"><path d="M 182.523438 123.15625 L 185.03125 123.15625 L 185.535156 123.660156 L 185.535156 218.117188 L 185.128906 218.324219 L 170 207.222656 L 169.59375 206.414062 L 169.59375 133.957031 L 169.984375 133.128906 L 181.628906 123.476562 Z M 182.523438 123.15625 " clip-rule="nonzero"/></clipPath><clipPath id="id6"><path d="M 187.226562 123.101562 L 203.164062 123.101562 L 203.164062 184.929688 L 187.226562 184.929688 Z M 187.226562 123.101562 " clip-rule="nonzero"/></clipPath><clipPath id="id7"><path d="M 187.226562 123.613281 L 187.226562 173.863281 L 187.644531 174.652344 L 202.738281 184.917969 L 203.15625 184.699219 L 203.15625 136.429688 L 202.8125 135.550781 L 191.660156 123.476562 L 190.808594 123.105469 L 187.730469 123.105469 Z M 187.226562 123.613281 " clip-rule="nonzero"/></clipPath><clipPath id="id8"><path d="M 204.5625 235.363281 L 221.085938 235.363281 L 221.085938 246.769531 L 204.5625 246.769531 Z M 204.5625 235.363281 " clip-rule="nonzero"/></clipPath><clipPath id="id9"><path d="M 220.578125 235.367188 L 221.085938 235.875 L 221.085938 246.253906 L 220.578125 246.761719 L 205.078125 246.761719 L 204.570312 246.253906 L 204.570312 244.3125 L 205.078125 243.808594 L 217.625 243.808594 L 218.128906 243.300781 L 218.128906 238.40625 L 217.625 237.898438 L 209.71875 237.898438 L 209.214844 237.394531 L 209.214844 235.875 L 209.71875 235.367188 Z M 220.578125 235.367188 " clip-rule="nonzero"/></clipPath><clipPath id="id10"><path d="M 204.5625 230.714844 L 221.085938 230.714844 L 221.085938 242.542969 L 204.5625 242.542969 Z M 204.5625 230.714844 " clip-rule="nonzero"/></clipPath><clipPath id="id11"><path d="M 220.578125 230.726562 L 205.078125 230.726562 L 204.570312 231.230469 L 204.570312 242.035156 L 205.078125 242.539062 L 215.933594 242.539062 L 216.441406 242.035156 L 216.441406 240.09375 L 215.933594 239.585938 L 208.03125 239.585938 L 207.527344 239.082031 L 207.527344 234.1875 L 208.03125 233.679688 L 220.578125 233.679688 L 221.085938 233.171875 L 221.085938 231.230469 L 220.578125 230.726562 " clip-rule="nonzero"/></clipPath><clipPath id="id12"><path d="M 187.226562 176.6875 L 221.085938 176.6875 L 221.085938 229.46875 L 187.226562 229.46875 Z M 187.226562 176.6875 " clip-rule="nonzero"/></clipPath><clipPath id="id13"><path d="M 220.664062 199.15625 L 221.085938 199.945312 L 221.085938 228.953125 L 220.578125 229.457031 L 205.078125 229.457031 L 204.570312 228.953125 L 204.570312 209.757812 L 204.15625 208.960938 L 187.640625 197.496094 L 187.226562 196.699219 L 187.226562 176.917969 L 187.644531 176.695312 Z M 220.664062 199.15625 " clip-rule="nonzero"/></clipPath><clipPath id="id14"><path d="M 151.53125 200.570312 L 202.273438 200.570312 L 202.273438 246.769531 L 151.53125 246.769531 Z M 151.53125 200.570312 " clip-rule="nonzero"/></clipPath><clipPath id="id15"><path d="M 187.226562 200.796875 L 187.226562 231.640625 L 186.71875 232.148438 L 186.042969 232.148438 L 185.535156 231.640625 L 185.535156 222.269531 L 185.128906 221.464844 L 169.253906 209.8125 L 168.84375 210.019531 L 168.84375 231.269531 L 168.335938 231.777344 L 159.804688 231.777344 L 158.957031 232.148438 L 151.882812 239.863281 L 151.542969 240.742188 L 151.542969 246.253906 L 152.046875 246.761719 L 190.125 246.761719 L 190.632812 246.253906 L 190.632812 235.875 L 191.140625 235.367188 L 201.757812 235.367188 L 202.265625 234.859375 L 202.265625 211.238281 L 201.851562 210.445312 L 187.640625 200.578125 L 187.226562 200.796875 " clip-rule="nonzero"/></clipPath><clipPath id="id16"><path d="M 196.078125 235.707031 L 196.820312 235.707031 L 196.820312 235.730469 L 196.078125 235.730469 Z M 196.078125 235.707031 " clip-rule="nonzero"/></clipPath><clipPath id="id17"><path d="M 196.8125 235.71875 L 196.085938 235.722656 " clip-rule="nonzero"/></clipPath><clipPath id="id18"><path d="M 190.992188 235.707031 L 201.960938 235.707031 L 201.960938 246.367188 L 190.992188 246.367188 Z M 190.992188 235.707031 " clip-rule="nonzero"/></clipPath><clipPath id="id19"><path d="M 196.085938 235.722656 L 190.996094 240.710938 L 190.996094 241.414062 L 196.132812 246.359375 L 196.859375 246.355469 L 201.953125 241.367188 L 201.949219 240.664062 L 196.8125 235.71875 " clip-rule="nonzero"/></clipPath></defs><g clip-path="url(#id1)"><path fill="#c3d9e8" d="M 371.570312 257.4375 C 370.859375 255.90625 369.15625 255.414062 364.0625 254.289062 C 360.34375 253.46875 355.253906 252.347656 348.835938 249.898438 C 337.636719 245.617188 328.792969 242.238281 322.992188 233.582031 C 317.601562 225.542969 315.011719 212.832031 316.398438 201.199219 C 316.558594 199.871094 316.769531 198.5625 316.972656 197.3125 C 317.230469 195.710938 317.601562 193.433594 317.546875 192.242188 C 316.726562 192.527344 315.46875 193.207031 314.640625 193.65625 C 311.835938 195.175781 308.339844 197.066406 305.410156 194.902344 C 305.21875 194.761719 305.042969 194.597656 304.890625 194.414062 C 303.972656 193.328125 304.152344 192.261719 304.316406 191.324219 C 304.691406 189.125 304.910156 187.441406 305.03125 186.160156 C 302.648438 189.082031 299.476562 192.660156 295.289062 192.859375 C 288.511719 193.128906 282.351562 184.75 275.648438 165.515625 C 274.074219 161.003906 276.136719 155.984375 280.445312 153.839844 C 281.789062 153.171875 282.191406 152.019531 282.3125 151.390625 C 282.527344 150.28125 282.207031 149.152344 281.4375 148.296875 C 278.546875 145.078125 275.40625 142.441406 272.09375 140.457031 L 271.445312 140.074219 C 268.980469 138.628906 265.257812 136.445312 264.558594 132.289062 C 264.011719 129.046875 265.671875 126.585938 266.773438 124.953125 C 267.035156 124.566406 267.402344 124.023438 267.585938 123.660156 C 266.917969 123.324219 265.347656 123.015625 264.359375 122.820312 C 261.238281 122.203125 257.355469 121.4375 255.667969 117.941406 C 253.921875 114.324219 255.972656 110.714844 257.464844 108.082031 C 257.660156 107.738281 257.894531 107.324219 258.109375 106.925781 C 257.476562 107.058594 256.765625 107.238281 256.160156 107.386719 C 252.277344 108.355469 246.953125 109.679688 241.835938 107.226562 C 237.382812 105.085938 235.753906 101.292969 234.449219 98.246094 C 233.265625 95.484375 232.328125 93.300781 229.675781 92.074219 C 227.953125 91.28125 226.816406 91.414062 224.1875 91.828125 C 222.03125 92.164062 219.347656 92.585938 215.511719 92.347656 C 206.722656 91.816406 200.488281 88.40625 195.933594 85.914062 C 186.300781 80.644531 182.535156 74.0625 178.546875 67.089844 C 175.289062 61.390625 171.914062 55.492188 164.847656 49.101562 C 161.757812 46.308594 152.355469 37.800781 138.742188 34.640625 C 130.761719 32.792969 126.179688 33.808594 119.835938 35.214844 C 114.320312 36.441406 107.433594 37.957031 96.660156 37.75 C 86.800781 37.554688 78.082031 36.007812 71.714844 34.875 C 69.328125 34.453125 66.746094 33.996094 64.820312 33.773438 C 67.070312 36.234375 70.257812 39.898438 72.160156 45.9375 C 73.160156 49.101562 75.011719 54.988281 71.910156 60.476562 C 68.820312 65.933594 62.582031 67.628906 60.742188 68.015625 C 57.253906 68.757812 54.675781 68.179688 52.796875 67.753906 C 50.980469 67.347656 50.300781 67.234375 49.300781 67.75 C 48.285156 68.269531 47.984375 68.730469 47.386719 69.644531 C 46.667969 70.738281 45.679688 72.238281 43.453125 73.671875 C 37.707031 77.359375 30.828125 75.839844 22.855469 74.082031 C 18.613281 73.144531 16.207031 72.226562 14.617188 71.621094 C 12.917969 70.972656 12.699219 70.902344 11.875 71.066406 C 9.023438 71.609375 5.964844 74.457031 3.691406 78.675781 C 1.839844 82.085938 1.269531 84.949219 1.234375 86.414062 C 1.914062 86.125 2.769531 85.6875 3.417969 85.359375 C 5.769531 84.160156 8.730469 82.648438 11.816406 82.648438 C 13.109375 82.648438 14.425781 82.917969 15.726562 83.585938 C 20.078125 85.816406 20.410156 90.34375 20.796875 95.585938 C 21.078125 99.40625 21.429688 104.15625 23.308594 109.554688 C 25.636719 116.230469 28.578125 119.109375 31.433594 121.886719 C 34.421875 124.804688 37.515625 127.824219 38.6875 134.28125 C 40.03125 141.699219 37.824219 147.863281 36.050781 152.816406 C 34.191406 158.015625 33.304688 160.847656 35.117188 163.394531 C 35.675781 164.175781 36.003906 164.328125 37.222656 164.890625 C 38.664062 165.558594 40.640625 166.472656 43.664062 168.828125 C 45.285156 170.09375 53.546875 176.832031 56.828125 185.292969 C 59.417969 191.972656 57.796875 196.84375 56.234375 201.554688 C 55.074219 205.039062 53.882812 208.640625 53.980469 213.628906 C 54.300781 229.320312 67.089844 240.984375 71.292969 244.816406 C 82.378906 254.921875 94.957031 258.03125 101.46875 258.988281 C 103.351562 259.265625 105.0625 260.050781 106.425781 261.261719 C 109.832031 264.289062 111.683594 267.601562 111.9375 271.113281 C 112.246094 275.410156 110.023438 278.066406 108.238281 280.199219 C 107.105469 281.554688 106.128906 282.722656 105.75 284.214844 C 103.65625 292.421875 119.449219 308.714844 137.636719 317.113281 C 140.285156 318.335938 142.527344 319.167969 144.511719 319.90625 C 148.691406 321.464844 152.300781 322.808594 156.6875 326.695312 C 159.53125 329.21875 162.019531 332.203125 164.089844 335.570312 C 165.105469 337.222656 166.839844 337.4375 168.121094 337.085938 C 168.691406 336.933594 170.546875 336.257812 170.589844 334.046875 C 170.617188 332.59375 170.433594 331.160156 170.050781 329.789062 C 169.546875 328.003906 168.6875 326.300781 167.5 324.726562 C 167.386719 324.582031 167.289062 324.425781 167.207031 324.261719 C 166.03125 321.917969 165.839844 319.253906 166.667969 316.769531 C 167.5 314.273438 169.257812 312.253906 171.617188 311.078125 C 176.480469 308.660156 182.40625 310.632812 184.839844 315.46875 C 184.9375 315.664062 185.015625 315.871094 185.070312 316.082031 C 185.554688 317.980469 186.371094 319.613281 187.492188 320.9375 C 191.457031 325.601562 198.667969 325.640625 207.019531 325.683594 C 209.925781 325.695312 212.925781 325.710938 215.914062 325.9375 C 225.984375 326.699219 236.109375 329.9375 246 335.566406 C 247.519531 336.429688 249.417969 336.121094 250.5 334.828125 C 257.066406 327.035156 264.121094 319.25 271.464844 311.679688 C 275.308594 307.722656 276.882812 306.101562 277.898438 305.320312 C 287.335938 298.058594 296.664062 299.070312 306.527344 300.148438 C 314.777344 301.042969 323.308594 301.972656 333.769531 298.757812 C 347.769531 294.449219 355.867188 284.234375 362.375 276.027344 L 362.789062 275.503906 C 366.847656 270.402344 373.621094 261.859375 371.570312 257.4375 Z M 371.570312 257.4375 " fill-opacity="1" fill-rule="nonzero"/></g><g clip-path="url(#id2)"><g clip-path="url(#id3)"><path fill="#2b5a7b" d="M 167.589844 161.03125 L 167.992188 161.230469 L 167.992188 178.671875 L 167.582031 179.476562 L 155.058594 188.621094 L 154.648438 189.425781 L 154.648438 199.164062 L 155.046875 199.359375 L 167.601562 189.570312 L 168 189.761719 L 168 207.722656 L 167.59375 208.527344 L 143.722656 226.164062 L 143.3125 226.972656 L 143.3125 231.589844 L 143.820312 232.09375 L 153.019531 232.09375 L 153.523438 232.601562 L 153.523438 236.320312 L 153.183594 237.199219 L 144.757812 246.386719 L 143.910156 246.761719 L 130.429688 246.761719 L 129.921875 246.253906 L 129.921875 219.894531 L 130.320312 219.078125 L 139.722656 211.761719 L 140.125 210.941406 L 140.125 182.730469 L 140.523438 181.914062 L 167.589844 161.03125 " fill-opacity="1" fill-rule="nonzero"/></g></g><g clip-path="url(#id4)"><g clip-path="url(#id5)"><path fill="#2b5a7b" d="M 182.523438 123.15625 L 185.03125 123.15625 L 185.535156 123.660156 L 185.535156 218.117188 L 185.128906 218.324219 L 170 207.222656 L 169.59375 206.414062 L 169.59375 133.957031 L 169.984375 133.128906 L 181.628906 123.476562 L 182.523438 123.15625 " fill-opacity="1" fill-rule="nonzero"/></g></g><g clip-path="url(#id6)"><g clip-path="url(#id7)"><path fill="#2b5a7b" d="M 187.226562 123.613281 L 187.226562 173.863281 L 187.644531 174.652344 L 202.738281 184.917969 L 203.15625 184.699219 L 203.15625 136.429688 L 202.8125 135.550781 L 191.660156 123.476562 L 190.808594 123.105469 L 187.730469 123.105469 L 187.226562 123.613281 " fill-opacity="1" fill-rule="nonzero"/></g></g><g clip-path="url(#id8)"><g clip-path="url(#id9)"><path fill="#2b5a7b" d="M 220.578125 235.367188 L 221.085938 235.875 L 221.085938 246.253906 L 220.578125 246.761719 L 205.078125 246.761719 L 204.570312 246.253906 L 204.570312 244.3125 L 205.078125 243.808594 L 217.625 243.808594 L 218.128906 243.300781 L 218.128906 238.40625 L 217.625 237.898438 L 209.71875 237.898438 L 209.214844 237.394531 L 209.214844 235.875 L 209.71875 235.367188 L 220.578125 235.367188 " fill-opacity="1" fill-rule="nonzero"/></g></g><g clip-path="url(#id10)"><g clip-path="url(#id11)"><path fill="#2b5a7b" d="M 220.578125 230.726562 L 205.078125 230.726562 L 204.570312 231.230469 L 204.570312 242.035156 L 205.078125 242.539062 L 215.933594 242.539062 L 216.441406 242.035156 L 216.441406 240.09375 L 215.933594 239.585938 L 208.03125 239.585938 L 207.527344 239.082031 L 207.527344 234.1875 L 208.03125 233.679688 L 220.578125 233.679688 L 221.085938 233.171875 L 221.085938 231.230469 L 220.578125 230.726562 " fill-opacity="1" fill-rule="nonzero"/></g></g><g clip-path="url(#id12)"><g clip-path="url(#id13)"><path fill="#2b5a7b" d="M 220.664062 199.15625 L 221.085938 199.945312 L 221.085938 228.953125 L 220.578125 229.457031 L 205.078125 229.457031 L 204.570312 228.953125 L 204.570312 209.757812 L 204.15625 208.960938 L 187.640625 197.496094 L 187.226562 196.699219 L 187.226562 176.917969 L 187.644531 176.695312 L 220.664062 199.15625 " fill-opacity="1" fill-rule="nonzero"/></g></g><g clip-path="url(#id14)"><g clip-path="url(#id15)"><path fill="#2b5a7b" d="M 187.226562 200.796875 L 187.226562 231.640625 L 186.71875 232.148438 L 186.042969 232.148438 L 185.535156 231.640625 L 185.535156 222.269531 L 185.128906 221.464844 L 169.253906 209.8125 L 168.84375 210.019531 L 168.84375 231.269531 L 168.335938 231.777344 L 159.804688 231.777344 L 158.957031 232.148438 L 151.882812 239.863281 L 151.542969 240.742188 L 151.542969 246.253906 L 152.046875 246.761719 L 190.125 246.761719 L 190.632812 246.253906 L 190.632812 235.875 L 191.140625 235.367188 L 201.757812 235.367188 L 202.265625 234.859375 L 202.265625 211.238281 L 201.851562 210.445312 L 187.640625 200.578125 L 187.226562 200.796875 " fill-opacity="1" fill-rule="nonzero"/></g></g><g clip-path="url(#id16)"><g clip-path="url(#id17)"><path fill="#2b5a7b" d="M 196.8125 235.71875 L 196.085938 235.722656 " fill-opacity="1" fill-rule="nonzero"/></g></g><g clip-path="url(#id18)"><g clip-path="url(#id19)"><path fill="#2b5a7b" d="M 196.085938 235.722656 L 190.996094 240.710938 L 190.996094 241.414062 L 196.132812 246.359375 L 196.859375 246.355469 L 201.953125 241.367188 L 201.949219 240.664062 L 196.8125 235.71875 " fill-opacity="1" fill-rule="nonzero"/></g></g></svg>