<svg xmlns="http://www.w3.org/2000/svg" xmlns:xlink="http://www.w3.org/1999/xlink" width="500" zoomAndPan="magnify" viewBox="0 0 375 374.999991" height="500" preserveAspectRatio="xMidYMid meet" version="1.0"><defs><clipPath id="id1"><path d="M 62 59.589844 L 67 59.589844 L 67 92 L 62 92 Z M 62 59.589844 " clip-rule="nonzero"/></clipPath><clipPath id="id2"><path d="M 305 280 L 337.5 280 L 337.5 284 L 305 284 Z M 305 280 " clip-rule="nonzero"/></clipPath><clipPath id="id3"><path d="M 297 290 L 302 290 L 302 315.339844 L 297 315.339844 Z M 297 290 " clip-rule="nonzero"/></clipPath><clipPath id="id4"><path d="M 37.5 179 L 139 179 L 139 305 L 37.5 305 Z M 37.5 179 " clip-rule="nonzero"/></clipPath></defs><rect x="-37.5" width="450" fill="#ffffff" y="-37.499999" height="449.999989" fill-opacity="1"/><rect x="-37.5" width="450" fill="#ffffff" y="-37.499999" height="449.999989" fill-opacity="1"/><rect x="-37.5" width="450" fill="#ffffff" y="-37.499999" height="449.999989" fill-opacity="1"/><rect x="-37.5" width="450" fill="#ffffff" y="-37.499999" height="449.999989" fill-opacity="1"/><path fill="#c3d9e8" d="M 265.136719 0 L 375 109.863281 L 375 265.136719 L 265.136719 375 L 109.863281 375 L 0 265.136719 L 0 109.863281 L 109.863281 0 L 265.136719 0 " fill-opacity="1" fill-rule="nonzero"/><path fill="#ffffff" d="M 312.417969 128.164062 C 312.417969 120.605469 306.296875 114.488281 298.738281 114.488281 L 76.976562 114.488281 C 69.417969 114.488281 63.292969 120.605469 63.292969 128.164062 L 63.292969 172.820312 C 63.292969 173.054688 63.316406 173.28125 63.328125 173.503906 C 63.3125 173.953125 63.292969 174.390625 63.292969 174.851562 L 63.292969 181.0625 C 63.292969 205.484375 82.6875 224.28125 106.621094 224.28125 L 269.09375 224.28125 C 293.023438 224.28125 312.417969 205.484375 312.417969 181.0625 L 312.417969 174.851562 C 312.417969 174.390625 312.394531 173.953125 312.386719 173.503906 C 312.394531 173.28125 312.417969 173.054688 312.417969 172.820312 L 312.417969 128.164062 " fill-opacity="1" fill-rule="nonzero"/><path fill="#2b5a7b" d="M 76.976562 116.292969 C 70.425781 116.292969 65.109375 121.617188 65.109375 128.164062 L 65.109375 172.820312 C 65.109375 172.945312 65.117188 173.054688 65.125 173.179688 L 65.144531 173.484375 L 65.128906 173.871094 C 65.121094 174.199219 65.109375 174.515625 65.109375 174.851562 L 65.109375 181.0625 C 65.109375 204.28125 83.339844 222.476562 106.621094 222.476562 L 269.09375 222.476562 C 292.371094 222.476562 310.609375 204.28125 310.609375 181.0625 L 310.609375 174.851562 C 310.609375 174.492188 310.589844 174.15625 310.582031 173.808594 L 310.570312 173.496094 L 310.589844 173.15625 C 310.601562 173.046875 310.609375 172.933594 310.609375 172.820312 L 310.609375 128.164062 C 310.609375 121.617188 305.285156 116.292969 298.738281 116.292969 Z M 269.09375 226.097656 L 106.621094 226.097656 C 81.300781 226.097656 61.476562 206.3125 61.476562 181.0625 L 61.476562 174.851562 C 61.476562 174.472656 61.488281 174.117188 61.503906 173.75 L 61.511719 173.535156 L 61.503906 173.414062 C 61.488281 173.21875 61.476562 173.023438 61.476562 172.820312 L 61.476562 128.164062 C 61.476562 119.617188 68.425781 112.671875 76.976562 112.671875 L 298.738281 112.671875 C 307.285156 112.671875 314.230469 119.617188 314.230469 128.164062 L 314.230469 172.820312 C 314.230469 173.015625 314.222656 173.199219 314.210938 173.382812 L 314.203125 173.523438 L 314.210938 173.6875 C 314.222656 174.074219 314.230469 174.453125 314.230469 174.851562 L 314.230469 181.0625 C 314.230469 206.3125 294.414062 226.097656 269.09375 226.097656 " fill-opacity="1" fill-rule="nonzero"/><path fill="#ffffff" d="M 312.417969 128.164062 C 312.417969 120.605469 306.296875 114.488281 298.738281 114.488281 L 76.976562 114.488281 C 69.417969 114.488281 63.292969 120.605469 63.292969 128.164062 L 63.292969 172.820312 C 63.292969 173.054688 63.316406 173.28125 63.328125 173.503906 C 63.3125 173.953125 63.292969 174.390625 63.292969 174.851562 L 63.292969 181.0625 C 63.292969 205.484375 82.6875 224.28125 106.621094 224.28125 L 269.09375 224.28125 C 293.023438 224.28125 312.417969 205.484375 312.417969 181.0625 L 312.417969 174.851562 C 312.417969 174.390625 312.394531 173.953125 312.386719 173.503906 C 312.394531 173.28125 312.417969 173.054688 312.417969 172.820312 L 312.417969 128.164062 " fill-opacity="1" fill-rule="nonzero"/><path fill="#2b5a7b" d="M 76.976562 116.292969 C 70.425781 116.292969 65.109375 121.617188 65.109375 128.164062 L 65.109375 172.820312 C 65.109375 172.945312 65.117188 173.054688 65.125 173.179688 L 65.144531 173.484375 L 65.128906 173.871094 C 65.121094 174.199219 65.109375 174.515625 65.109375 174.851562 L 65.109375 181.0625 C 65.109375 204.28125 83.339844 222.476562 106.621094 222.476562 L 269.09375 222.476562 C 292.371094 222.476562 310.609375 204.28125 310.609375 181.0625 L 310.609375 174.851562 C 310.609375 174.492188 310.589844 174.15625 310.582031 173.808594 L 310.570312 173.496094 L 310.589844 173.15625 C 310.601562 173.046875 310.609375 172.933594 310.609375 172.820312 L 310.609375 128.164062 C 310.609375 121.617188 305.285156 116.292969 298.738281 116.292969 Z M 269.09375 226.097656 L 106.621094 226.097656 C 81.300781 226.097656 61.476562 206.3125 61.476562 181.0625 L 61.476562 174.851562 C 61.476562 174.472656 61.488281 174.117188 61.503906 173.75 L 61.511719 173.535156 L 61.503906 173.414062 C 61.488281 173.21875 61.476562 173.023438 61.476562 172.820312 L 61.476562 128.164062 C 61.476562 119.617188 68.425781 112.671875 76.976562 112.671875 L 298.738281 112.671875 C 307.285156 112.671875 314.230469 119.617188 314.230469 128.164062 L 314.230469 172.820312 C 314.230469 173.015625 314.222656 173.199219 314.210938 173.382812 L 314.203125 173.523438 L 314.210938 173.6875 C 314.222656 174.074219 314.230469 174.453125 314.230469 174.851562 L 314.230469 181.0625 C 314.230469 206.3125 294.414062 226.097656 269.09375 226.097656 " fill-opacity="1" fill-rule="nonzero"/><path fill="#ffffff" d="M 141.003906 114.488281 L 141.003906 108.570312 C 141.003906 102.554688 146.667969 97.671875 153.664062 97.671875 L 222.050781 97.671875 C 229.046875 97.671875 234.707031 102.554688 234.707031 108.570312 L 234.707031 114.488281 L 246.9375 114.488281 L 246.9375 101.941406 C 246.9375 93.132812 239.796875 85.984375 230.984375 85.984375 L 144.730469 85.984375 C 135.914062 85.984375 128.773438 93.132812 128.773438 101.941406 L 128.773438 114.488281 L 141.003906 114.488281 " fill-opacity="1" fill-rule="nonzero"/><path fill="#2b5a7b" d="M 236.523438 112.671875 L 245.132812 112.671875 L 245.132812 101.941406 C 245.132812 94.140625 238.777344 87.796875 230.984375 87.796875 L 144.730469 87.796875 C 136.9375 87.796875 130.589844 94.140625 130.589844 101.941406 L 130.589844 112.671875 L 139.191406 112.671875 L 139.191406 108.570312 C 139.191406 101.554688 145.675781 95.855469 153.664062 95.855469 L 222.050781 95.855469 C 230.027344 95.855469 236.523438 101.554688 236.523438 108.570312 Z M 248.753906 116.292969 L 232.894531 116.292969 L 232.894531 108.570312 C 232.894531 103.554688 228.027344 99.484375 222.050781 99.484375 L 153.664062 99.484375 C 147.675781 99.484375 142.820312 103.554688 142.820312 108.570312 L 142.820312 116.292969 L 126.960938 116.292969 L 126.960938 101.941406 C 126.960938 92.144531 134.925781 84.179688 144.730469 84.179688 L 230.984375 84.179688 C 240.789062 84.179688 248.753906 92.144531 248.753906 101.941406 L 248.753906 116.292969 " fill-opacity="1" fill-rule="nonzero"/><path fill="#ffffff" d="M 269.09375 224.28125 L 106.621094 224.28125 C 96.367188 224.28125 86.960938 220.835938 79.546875 214.96875 L 79.546875 269.878906 C 79.546875 277.433594 85.667969 283.554688 93.226562 283.554688 L 282.488281 283.554688 C 290.035156 283.554688 296.167969 277.433594 296.167969 269.878906 L 296.167969 214.96875 C 288.75 220.835938 279.335938 224.28125 269.09375 224.28125 " fill-opacity="1" fill-rule="nonzero"/><path fill="#2b5a7b" d="M 81.363281 218.539062 L 81.363281 269.878906 C 81.363281 276.425781 86.6875 281.75 93.226562 281.75 L 282.488281 281.75 C 289.027344 281.75 294.351562 276.425781 294.351562 269.878906 L 294.351562 218.539062 C 286.925781 223.496094 278.265625 226.097656 269.09375 226.097656 L 106.621094 226.097656 C 97.449219 226.097656 88.789062 223.496094 81.363281 218.539062 Z M 282.488281 285.371094 L 93.226562 285.371094 C 84.6875 285.371094 77.730469 278.425781 77.730469 269.878906 L 77.730469 211.226562 L 80.667969 213.554688 C 88.0625 219.386719 97.03125 222.476562 106.621094 222.476562 L 269.09375 222.476562 C 278.683594 222.476562 287.648438 219.386719 295.046875 213.554688 L 297.984375 211.226562 L 297.984375 269.878906 C 297.984375 278.425781 291.027344 285.371094 282.488281 285.371094 " fill-opacity="1" fill-rule="nonzero"/><path fill="#ffffff" d="M 198.273438 233.828125 C 198.273438 239.101562 193.996094 243.382812 188.722656 243.382812 C 183.449219 243.382812 179.167969 239.101562 179.167969 233.828125 L 179.167969 214.746094 C 179.167969 209.472656 183.449219 205.191406 188.722656 205.191406 C 193.996094 205.191406 198.273438 209.472656 198.273438 214.746094 L 198.273438 233.828125 " fill-opacity="1" fill-rule="nonzero"/><path fill="#2b5a7b" d="M 188.722656 207.003906 C 184.449219 207.003906 180.980469 210.472656 180.980469 214.746094 L 180.980469 233.828125 C 180.980469 238.089844 184.449219 241.566406 188.722656 241.566406 C 192.988281 241.566406 196.457031 238.089844 196.457031 233.828125 L 196.457031 214.746094 C 196.457031 210.472656 192.988281 207.003906 188.722656 207.003906 Z M 188.722656 245.1875 C 182.449219 245.1875 177.351562 240.089844 177.351562 233.828125 L 177.351562 214.746094 C 177.351562 208.472656 182.449219 203.375 188.722656 203.375 C 194.988281 203.375 200.085938 208.472656 200.085938 214.746094 L 200.085938 233.828125 C 200.085938 240.089844 194.988281 245.1875 188.722656 245.1875 " fill-opacity="1" fill-rule="nonzero"/><g clip-path="url(#id1)"><path fill="#2b5a7b" d="M 64.257812 91.867188 C 63.183594 91.867188 62.316406 91 62.316406 89.917969 L 62.316406 61.722656 C 62.316406 60.644531 63.183594 59.777344 64.257812 59.777344 C 65.332031 59.777344 66.203125 60.644531 66.203125 61.722656 L 66.203125 89.917969 C 66.203125 91 65.332031 91.867188 64.257812 91.867188 " fill-opacity="1" fill-rule="nonzero"/></g><path fill="#2b5a7b" d="M 78.363281 77.769531 L 50.152344 77.769531 C 49.082031 77.769531 48.207031 76.894531 48.207031 75.824219 C 48.207031 74.75 49.082031 73.875 50.152344 73.875 L 78.363281 73.875 C 79.445312 73.875 80.3125 74.75 80.3125 75.824219 C 80.3125 76.894531 79.445312 77.769531 78.363281 77.769531 " fill-opacity="1" fill-rule="nonzero"/><path fill="#2b5a7b" d="M 96.296875 98.507812 L 75.140625 98.507812 C 74.070312 98.507812 73.191406 97.640625 73.191406 96.558594 C 73.191406 95.488281 74.070312 94.609375 75.140625 94.609375 L 96.296875 94.609375 C 97.367188 94.609375 98.246094 95.488281 98.246094 96.558594 C 98.246094 97.640625 97.367188 98.507812 96.296875 98.507812 " fill-opacity="1" fill-rule="nonzero"/><path fill="#2b5a7b" d="M 85.71875 109.082031 C 84.648438 109.082031 83.78125 108.214844 83.78125 107.132812 L 83.78125 85.984375 C 83.78125 84.910156 84.648438 84.046875 85.71875 84.046875 C 86.800781 84.046875 87.667969 84.910156 87.667969 85.984375 L 87.667969 107.132812 C 87.667969 108.214844 86.800781 109.082031 85.71875 109.082031 " fill-opacity="1" fill-rule="nonzero"/><path fill="#2b5a7b" d="M 321.394531 298.054688 C 320.3125 298.054688 319.445312 297.179688 319.445312 296.109375 L 319.445312 267.910156 C 319.445312 266.828125 320.3125 265.960938 321.394531 265.960938 C 322.464844 265.960938 323.332031 266.828125 323.332031 267.910156 L 323.332031 296.109375 C 323.332031 297.179688 322.464844 298.054688 321.394531 298.054688 " fill-opacity="1" fill-rule="nonzero"/><g clip-path="url(#id2)"><path fill="#2b5a7b" d="M 335.492188 283.953125 L 307.285156 283.953125 C 306.203125 283.953125 305.335938 283.085938 305.335938 282.003906 C 305.335938 280.933594 306.203125 280.054688 307.285156 280.054688 L 335.492188 280.054688 C 336.570312 280.054688 337.4375 280.933594 337.4375 282.003906 C 337.4375 283.085938 336.570312 283.953125 335.492188 283.953125 " fill-opacity="1" fill-rule="nonzero"/></g><path fill="#2b5a7b" d="M 310.507812 304.695312 L 289.351562 304.695312 C 288.273438 304.695312 287.40625 303.816406 287.40625 302.746094 C 287.40625 301.675781 288.273438 300.800781 289.351562 300.800781 L 310.507812 300.800781 C 311.582031 300.800781 312.457031 301.675781 312.457031 302.746094 C 312.457031 303.816406 311.582031 304.695312 310.507812 304.695312 " fill-opacity="1" fill-rule="nonzero"/><g clip-path="url(#id3)"><path fill="#2b5a7b" d="M 299.929688 315.261719 C 298.851562 315.261719 297.984375 314.394531 297.984375 313.324219 L 297.984375 292.171875 C 297.984375 291.101562 298.851562 290.222656 299.929688 290.222656 C 301.003906 290.222656 301.871094 291.101562 301.871094 292.171875 L 301.871094 313.324219 C 301.871094 314.394531 301.003906 315.261719 299.929688 315.261719 " fill-opacity="1" fill-rule="nonzero"/></g><path fill="#2b5a7b" d="M 296.125 128.132812 L 237.757812 128.132812 C 236.6875 128.132812 235.820312 127.265625 235.820312 126.183594 C 235.820312 125.113281 236.6875 124.246094 237.757812 124.246094 L 296.125 124.246094 C 297.199219 124.246094 298.074219 125.113281 298.074219 126.183594 C 298.074219 127.265625 297.199219 128.132812 296.125 128.132812 " fill-opacity="1" fill-rule="nonzero"/><path fill="#2b5a7b" d="M 229.976562 128.132812 L 211.980469 128.132812 C 210.910156 128.132812 210.042969 127.265625 210.042969 126.183594 C 210.042969 125.113281 210.910156 124.246094 211.980469 124.246094 L 229.976562 124.246094 C 231.054688 124.246094 231.921875 125.113281 231.921875 126.183594 C 231.921875 127.265625 231.054688 128.132812 229.976562 128.132812 " fill-opacity="1" fill-rule="nonzero"/><path fill="#ffffff" d="M 118.625 302.746094 L 39.441406 289.5625 L 57.535156 180.9375 L 136.730469 194.125 L 118.625 302.746094 " fill-opacity="1" fill-rule="nonzero"/><g clip-path="url(#id4)"><path fill="#2b5a7b" d="M 41.53125 288.070312 L 117.136719 300.65625 L 134.640625 195.613281 L 59.03125 183.03125 Z M 118.636719 304.5625 C 118.535156 304.5625 118.429688 304.550781 118.328125 304.53125 L 39.144531 291.34375 C 38.15625 291.183594 37.488281 290.253906 37.652344 289.253906 L 55.746094 180.644531 C 55.914062 179.652344 56.84375 178.992188 57.835938 179.15625 L 137.027344 192.339844 C 137.496094 192.410156 137.925781 192.675781 138.199219 193.074219 C 138.484375 193.460938 138.597656 193.953125 138.515625 194.429688 L 120.421875 303.042969 C 120.269531 303.929688 119.503906 304.5625 118.636719 304.5625 " fill-opacity="1" fill-rule="nonzero"/></g><path fill="#ffffff" d="M 66.742188 195.808594 L 123.195312 205.210938 " fill-opacity="1" fill-rule="nonzero"/><path fill="#2b5a7b" d="M 123.207031 207.015625 C 123.101562 207.015625 123 207.015625 122.898438 206.996094 L 66.445312 197.59375 C 65.453125 197.429688 64.789062 196.492188 64.953125 195.503906 C 65.117188 194.523438 66.046875 193.851562 67.039062 194.011719 L 123.5 203.414062 C 124.492188 203.578125 125.152344 204.515625 124.992188 205.507812 C 124.835938 206.394531 124.074219 207.015625 123.207031 207.015625 " fill-opacity="1" fill-rule="nonzero"/><path fill="#ffffff" d="M 64.070312 211.839844 L 120.523438 221.242188 " fill-opacity="1" fill-rule="nonzero"/><path fill="#2b5a7b" d="M 120.53125 223.058594 C 120.429688 223.058594 120.328125 223.058594 120.226562 223.039062 L 63.773438 213.632812 C 62.785156 213.472656 62.113281 212.535156 62.28125 211.542969 C 62.445312 210.554688 63.378906 209.890625 64.371094 210.054688 L 120.828125 219.457031 C 121.808594 219.621094 122.480469 220.558594 122.316406 221.546875 C 122.164062 222.4375 121.398438 223.058594 120.53125 223.058594 " fill-opacity="1" fill-rule="nonzero"/><path fill="#ffffff" d="M 61.398438 227.882812 L 117.859375 237.285156 " fill-opacity="1" fill-rule="nonzero"/><path fill="#2b5a7b" d="M 117.859375 239.101562 C 117.757812 239.101562 117.65625 239.089844 117.554688 239.078125 L 61.097656 229.675781 C 60.113281 229.503906 59.445312 228.574219 59.609375 227.585938 C 59.773438 226.597656 60.703125 225.921875 61.695312 226.097656 L 118.15625 235.5 C 119.144531 235.664062 119.808594 236.589844 119.644531 237.582031 C 119.503906 238.46875 118.726562 239.101562 117.859375 239.101562 " fill-opacity="1" fill-rule="nonzero"/><path fill="#ffffff" d="M 58.722656 243.921875 L 115.175781 253.328125 " fill-opacity="1" fill-rule="nonzero"/><path fill="#2b5a7b" d="M 115.1875 255.140625 C 115.085938 255.140625 114.984375 255.132812 114.890625 255.109375 L 58.425781 245.707031 C 57.441406 245.546875 56.773438 244.617188 56.933594 243.628906 C 57.097656 242.636719 58.03125 241.964844 59.023438 242.140625 L 115.484375 251.542969 C 116.472656 251.703125 117.136719 252.632812 116.972656 253.621094 C 116.820312 254.507812 116.054688 255.140625 115.1875 255.140625 " fill-opacity="1" fill-rule="nonzero"/><path fill="#ffffff" d="M 56.054688 259.964844 L 112.503906 269.367188 " fill-opacity="1" fill-rule="nonzero"/><path fill="#2b5a7b" d="M 112.515625 271.183594 C 112.414062 271.183594 112.3125 271.171875 112.210938 271.152344 L 55.757812 261.75 C 54.769531 261.585938 54.097656 260.648438 54.265625 259.660156 C 54.429688 258.679688 55.359375 258.007812 56.355469 258.171875 L 112.8125 267.574219 C 113.800781 267.738281 114.464844 268.675781 114.300781 269.664062 C 114.15625 270.550781 113.382812 271.183594 112.515625 271.183594 " fill-opacity="1" fill-rule="nonzero"/><path fill="#ffffff" d="M 53.382812 275.996094 L 109.84375 285.410156 " fill-opacity="1" fill-rule="nonzero"/><path fill="#2b5a7b" d="M 109.84375 287.214844 C 109.742188 287.214844 109.640625 287.214844 109.535156 287.195312 L 53.082031 277.792969 C 52.09375 277.628906 51.429688 276.691406 51.59375 275.710938 C 51.753906 274.722656 52.6875 274.050781 53.679688 274.210938 L 110.136719 283.613281 C 111.128906 283.777344 111.792969 284.714844 111.628906 285.707031 C 111.484375 286.59375 110.710938 287.214844 109.84375 287.214844 " fill-opacity="1" fill-rule="nonzero"/></svg>