<svg xmlns="http://www.w3.org/2000/svg" xmlns:xlink="http://www.w3.org/1999/xlink" width="500" zoomAndPan="magnify" viewBox="0 0 375 374.999991" height="500" preserveAspectRatio="xMidYMid meet" version="1.0"><defs><clipPath id="id1"><path d="M 56.4375 37.5 L 191 37.5 L 191 263 L 56.4375 263 Z M 56.4375 37.5 " clip-rule="nonzero"/></clipPath><clipPath id="id2"><path d="M 184.523438 37.648438 L 318.9375 37.648438 L 318.9375 262.933594 L 184.523438 262.933594 Z M 184.523438 37.648438 " clip-rule="nonzero"/></clipPath><clipPath id="id3"><path d="M 56.445312 204.128906 L 318.9375 204.128906 L 318.9375 315.484375 L 56.445312 315.484375 Z M 56.445312 204.128906 " clip-rule="nonzero"/></clipPath><clipPath id="id4"><path d="M 56.445312 256.683594 L 318.9375 256.683594 L 318.9375 337.484375 L 56.445312 337.484375 Z M 56.445312 256.683594 " clip-rule="nonzero"/></clipPath><clipPath id="id5"><path d="M 184.523438 320.632812 L 190.777344 320.632812 L 190.777344 337.484375 L 184.523438 337.484375 Z M 184.523438 320.632812 " clip-rule="nonzero"/></clipPath></defs><rect x="-37.5" width="450" fill="#ffffff" y="-37.499999" height="449.999989" fill-opacity="1"/><rect x="-37.5" width="450" fill="#ffffff" y="-37.499999" height="449.999989" fill-opacity="1"/><rect x="-37.5" width="450" fill="#ffffff" y="-37.499999" height="449.999989" fill-opacity="1"/><rect x="-37.5" width="450" fill="#ffffff" y="-37.499999" height="449.999989" fill-opacity="1"/><path fill="#c3d9e8" d="M 265.136719 0 L 375 109.863281 L 375 265.136719 L 265.136719 375 L 109.863281 375 L 0 265.136719 L 0 109.863281 L 109.863281 0 L 265.136719 0 " fill-opacity="1" fill-rule="nonzero"/><g clip-path="url(#id1)"><path fill="#2b5a7b" d="M 62.332031 95.246094 L 62.332031 255.417969 L 184.75 205.144531 L 184.75 44.972656 Z M 59.390625 262.746094 C 58.816406 262.746094 58.242188 262.574219 57.753906 262.246094 C 56.933594 261.703125 56.445312 260.785156 56.445312 259.804688 L 56.445312 93.277344 C 56.445312 92.085938 57.167969 91.007812 58.269531 90.558594 L 186.574219 37.867188 C 187.480469 37.496094 188.515625 37.597656 189.328125 38.144531 C 190.144531 38.691406 190.636719 39.605469 190.636719 40.585938 L 190.636719 207.113281 C 190.636719 208.304688 189.914062 209.378906 188.8125 209.832031 L 60.507812 262.523438 C 60.148438 262.671875 59.769531 262.746094 59.390625 262.746094 " fill-opacity="1" fill-rule="nonzero"/></g><path fill="#2b5a7b" d="M 73.6875 156.070312 C 72.0625 156.070312 70.742188 154.753906 70.742188 153.128906 L 70.742188 102.84375 C 70.742188 101.652344 71.464844 100.578125 72.570312 100.121094 L 93.84375 91.386719 C 95.34375 90.769531 97.066406 91.488281 97.683594 92.988281 C 98.300781 94.492188 97.585938 96.207031 96.082031 96.828125 L 76.632812 104.8125 L 76.632812 153.128906 C 76.632812 154.753906 75.3125 156.070312 73.6875 156.070312 " fill-opacity="1" fill-rule="nonzero"/><g clip-path="url(#id2)"><path fill="#2b5a7b" d="M 190.636719 205.144531 L 313.050781 255.417969 L 313.050781 95.246094 L 190.636719 44.972656 Z M 315.992188 262.746094 C 315.617188 262.746094 315.234375 262.671875 314.875 262.523438 L 186.574219 209.832031 C 185.46875 209.378906 184.75 208.304688 184.75 207.113281 L 184.75 40.585938 C 184.75 39.605469 185.238281 38.691406 186.054688 38.144531 C 186.867188 37.597656 187.902344 37.492188 188.8125 37.867188 L 317.113281 90.558594 C 318.21875 91.007812 318.941406 92.085938 318.941406 93.277344 L 318.941406 259.804688 C 318.941406 260.785156 318.449219 261.703125 317.632812 262.246094 C 317.140625 262.574219 316.570312 262.746094 315.992188 262.746094 " fill-opacity="1" fill-rule="nonzero"/></g><path fill="#2b5a7b" d="M 301.695312 230.820312 C 300.070312 230.820312 298.753906 229.503906 298.753906 227.878906 L 298.753906 220.320312 C 298.753906 218.699219 300.070312 217.382812 301.695312 217.382812 C 303.320312 217.382812 304.640625 218.699219 304.640625 220.320312 L 304.640625 227.878906 C 304.640625 229.503906 303.320312 230.820312 301.695312 230.820312 " fill-opacity="1" fill-rule="nonzero"/><path fill="#2b5a7b" d="M 301.695312 210.054688 C 300.070312 210.054688 298.753906 208.738281 298.753906 207.117188 L 298.753906 131.714844 C 298.753906 130.089844 300.070312 128.773438 301.695312 128.773438 C 303.320312 128.773438 304.640625 130.089844 304.640625 131.714844 L 304.640625 207.117188 C 304.640625 208.738281 303.320312 210.054688 301.695312 210.054688 " fill-opacity="1" fill-rule="nonzero"/><path fill="#2b5a7b" d="M 96.125 132.386719 L 96.125 190.523438 L 150.957031 168.007812 L 150.957031 109.867188 Z M 93.179688 197.851562 C 92.605469 197.851562 92.035156 197.679688 91.542969 197.351562 C 90.726562 196.808594 90.238281 195.890625 90.238281 194.910156 L 90.238281 130.417969 C 90.238281 129.222656 90.957031 128.152344 92.058594 127.699219 L 152.78125 102.761719 C 153.6875 102.390625 154.722656 102.492188 155.539062 103.039062 C 156.355469 103.582031 156.84375 104.5 156.84375 105.480469 L 156.84375 169.972656 C 156.84375 171.164062 156.125 172.242188 155.023438 172.695312 L 94.300781 197.628906 C 93.9375 197.777344 93.558594 197.851562 93.179688 197.851562 " fill-opacity="1" fill-rule="nonzero"/><path fill="#2b5a7b" d="M 123.542969 185.382812 C 121.914062 185.382812 120.597656 184.066406 120.597656 182.441406 L 120.597656 117.945312 C 120.597656 116.324219 121.914062 115.007812 123.542969 115.007812 C 125.167969 115.007812 126.484375 116.324219 126.484375 117.945312 L 126.484375 182.441406 C 126.484375 184.066406 125.167969 185.382812 123.542969 185.382812 " fill-opacity="1" fill-rule="nonzero"/><path fill="#2b5a7b" d="M 103.875 150.664062 C 103.464844 150.664062 103.050781 150.578125 102.65625 150.398438 C 101.175781 149.730469 100.523438 147.984375 101.195312 146.507812 L 105.390625 137.308594 C 106.0625 135.828125 107.8125 135.175781 109.289062 135.847656 C 110.769531 136.519531 111.421875 138.265625 110.75 139.742188 L 106.554688 148.941406 C 106.058594 150.023438 104.992188 150.664062 103.875 150.664062 " fill-opacity="1" fill-rule="nonzero"/><path fill="#2b5a7b" d="M 103.621094 176.871094 C 103.210938 176.871094 102.796875 176.785156 102.402344 176.605469 C 100.921875 175.9375 100.269531 174.191406 100.941406 172.714844 L 111.417969 149.738281 C 112.09375 148.257812 113.835938 147.609375 115.316406 148.277344 C 116.796875 148.953125 117.449219 150.695312 116.777344 152.171875 L 106.300781 175.148438 C 105.808594 176.230469 104.738281 176.871094 103.621094 176.871094 " fill-opacity="1" fill-rule="nonzero"/><path fill="#2b5a7b" d="M 134.710938 140.210938 C 134.300781 140.210938 133.886719 140.125 133.492188 139.945312 C 132.011719 139.273438 131.359375 137.53125 132.03125 136.054688 L 136.226562 126.855469 C 136.898438 125.375 138.648438 124.722656 140.125 125.394531 C 141.605469 126.066406 142.257812 127.8125 141.585938 129.289062 L 137.390625 138.488281 C 136.898438 139.570312 135.828125 140.210938 134.710938 140.210938 " fill-opacity="1" fill-rule="nonzero"/><path fill="#2b5a7b" d="M 134.457031 166.417969 C 134.046875 166.417969 133.632812 166.332031 133.238281 166.152344 C 131.757812 165.480469 131.105469 163.738281 131.777344 162.261719 L 142.253906 139.28125 C 142.929688 137.808594 144.675781 137.15625 146.15625 137.824219 C 147.632812 138.5 148.289062 140.246094 147.613281 141.71875 L 137.136719 164.695312 C 136.644531 165.777344 135.574219 166.417969 134.457031 166.417969 " fill-opacity="1" fill-rule="nonzero"/><g clip-path="url(#id3)"><path fill="#2b5a7b" d="M 67.128906 259.804688 L 187.691406 309.316406 L 308.253906 259.804688 L 187.691406 210.292969 Z M 187.691406 315.433594 C 187.3125 315.433594 186.933594 315.359375 186.574219 315.210938 L 58.269531 262.523438 C 57.167969 262.070312 56.445312 260.996094 56.445312 259.804688 C 56.445312 258.613281 57.167969 257.539062 58.269531 257.085938 L 186.574219 204.394531 C 187.289062 204.101562 188.09375 204.101562 188.8125 204.394531 L 317.113281 257.085938 C 318.21875 257.539062 318.941406 258.613281 318.941406 259.804688 C 318.941406 260.996094 318.21875 262.070312 317.113281 262.523438 L 188.8125 315.210938 C 188.453125 315.359375 188.074219 315.433594 187.691406 315.433594 " fill-opacity="1" fill-rule="nonzero"/></g><g clip-path="url(#id4)"><path fill="#2b5a7b" d="M 62.332031 279.886719 L 187.691406 331.367188 L 313.050781 279.886719 L 313.050781 264.191406 L 188.8125 315.210938 C 188.09375 315.507812 187.289062 315.507812 186.574219 315.210938 L 62.332031 264.191406 Z M 187.691406 337.484375 C 187.3125 337.484375 186.933594 337.410156 186.574219 337.265625 L 58.269531 284.578125 C 57.167969 284.121094 56.445312 283.046875 56.445312 281.855469 L 56.445312 259.804688 C 56.445312 258.824219 56.933594 257.910156 57.753906 257.363281 C 58.570312 256.8125 59.601562 256.710938 60.507812 257.085938 L 187.691406 309.316406 L 314.875 257.085938 C 315.78125 256.710938 316.816406 256.8125 317.632812 257.363281 C 318.449219 257.910156 318.941406 258.824219 318.941406 259.804688 L 318.941406 281.855469 C 318.941406 283.046875 318.21875 284.121094 317.113281 284.578125 L 188.8125 337.265625 C 188.453125 337.410156 188.074219 337.484375 187.691406 337.484375 " fill-opacity="1" fill-rule="nonzero"/></g><path fill="#2b5a7b" d="M 230.449219 227.613281 L 144.933594 227.613281 C 143.308594 227.613281 141.992188 226.296875 141.992188 224.675781 C 141.992188 223.050781 143.308594 221.734375 144.933594 221.734375 L 230.449219 221.734375 C 232.074219 221.734375 233.394531 223.050781 233.394531 224.675781 C 233.394531 226.296875 232.074219 227.613281 230.449219 227.613281 " fill-opacity="1" fill-rule="nonzero"/><path fill="#2b5a7b" d="M 269.957031 243.839844 L 166.664062 243.839844 C 165.039062 243.839844 163.722656 242.523438 163.722656 240.898438 C 163.722656 239.273438 165.039062 237.960938 166.664062 237.960938 L 269.957031 237.960938 C 271.585938 237.960938 272.902344 239.273438 272.902344 240.898438 C 272.902344 242.523438 271.585938 243.839844 269.957031 243.839844 " fill-opacity="1" fill-rule="nonzero"/><path fill="#2b5a7b" d="M 147.738281 243.839844 L 105.425781 243.839844 C 103.796875 243.839844 102.480469 242.523438 102.480469 240.898438 C 102.480469 239.273438 103.796875 237.960938 105.425781 237.960938 L 147.738281 237.960938 C 149.367188 237.960938 150.683594 239.273438 150.683594 240.898438 C 150.683594 242.523438 149.367188 243.839844 147.738281 243.839844 " fill-opacity="1" fill-rule="nonzero"/><path fill="#2b5a7b" d="M 309.46875 260.0625 L 65.921875 260.0625 C 64.292969 260.0625 62.976562 258.746094 62.976562 257.121094 C 62.976562 255.5 64.292969 254.183594 65.921875 254.183594 L 309.46875 254.183594 C 311.09375 254.183594 312.414062 255.5 312.414062 257.121094 C 312.414062 258.746094 311.09375 260.0625 309.46875 260.0625 " fill-opacity="1" fill-rule="nonzero"/><path fill="#2b5a7b" d="M 283.011719 276.289062 L 234.792969 276.289062 C 233.167969 276.289062 231.847656 274.972656 231.847656 273.347656 C 231.847656 271.726562 233.167969 270.410156 234.792969 270.410156 L 283.011719 270.410156 C 284.636719 270.410156 285.953125 271.726562 285.953125 273.347656 C 285.953125 274.972656 284.636719 276.289062 283.011719 276.289062 " fill-opacity="1" fill-rule="nonzero"/><path fill="#2b5a7b" d="M 215.449219 276.289062 L 92.375 276.289062 C 90.746094 276.289062 89.429688 274.972656 89.429688 273.347656 C 89.429688 271.726562 90.746094 270.410156 92.375 270.410156 L 215.449219 270.410156 C 217.070312 270.410156 218.390625 271.726562 218.390625 273.347656 C 218.390625 274.972656 217.070312 276.289062 215.449219 276.289062 " fill-opacity="1" fill-rule="nonzero"/><path fill="#2b5a7b" d="M 243.5 292.515625 L 131.882812 292.515625 C 130.257812 292.515625 128.941406 291.195312 128.941406 289.574219 C 128.941406 287.953125 130.257812 286.636719 131.882812 286.636719 L 243.5 286.636719 C 245.128906 286.636719 246.445312 287.953125 246.445312 289.574219 C 246.445312 291.195312 245.128906 292.515625 243.5 292.515625 " fill-opacity="1" fill-rule="nonzero"/><g clip-path="url(#id5)"><path fill="#2b5a7b" d="M 187.691406 337.484375 C 186.066406 337.484375 184.75 336.171875 184.75 334.546875 L 184.75 323.90625 C 184.75 322.285156 186.066406 320.964844 187.691406 320.964844 C 189.320312 320.964844 190.636719 322.285156 190.636719 323.90625 L 190.636719 334.546875 C 190.636719 336.171875 189.320312 337.484375 187.691406 337.484375 " fill-opacity="1" fill-rule="nonzero"/></g></svg>