<svg xmlns="http://www.w3.org/2000/svg" xmlns:xlink="http://www.w3.org/1999/xlink" width="500" zoomAndPan="magnify" viewBox="0 0 375 374.999991" height="500" preserveAspectRatio="xMidYMid meet" version="1.0"><defs><clipPath id="id1"><path d="M 43.546875 152 L 331.546875 152 L 331.546875 326.054688 L 43.546875 326.054688 Z M 43.546875 152 " clip-rule="nonzero"/></clipPath><clipPath id="id2"><path d="M 172 304 L 197 304 L 197 326.054688 L 172 326.054688 Z M 172 304 " clip-rule="nonzero"/></clipPath><clipPath id="id3"><path d="M 43.546875 173 L 66 173 L 66 198 L 43.546875 198 Z M 43.546875 173 " clip-rule="nonzero"/></clipPath><clipPath id="id4"><path d="M 178 304 L 203 304 L 203 326.054688 L 178 326.054688 Z M 178 304 " clip-rule="nonzero"/></clipPath><clipPath id="id5"><path d="M 309 173 L 331.546875 173 L 331.546875 198 L 309 198 Z M 309 173 " clip-rule="nonzero"/></clipPath><clipPath id="id6"><path d="M 160 53 L 331.546875 53 L 331.546875 297 L 160 297 Z M 160 53 " clip-rule="nonzero"/></clipPath><clipPath id="id7"><path d="M 43.546875 53 L 215 53 L 215 297 L 43.546875 297 Z M 43.546875 53 " clip-rule="nonzero"/></clipPath><clipPath id="id8"><path d="M 151 49.304688 L 222 49.304688 L 222 110 L 151 110 Z M 151 49.304688 " clip-rule="nonzero"/></clipPath><clipPath id="id9"><path d="M 153 49.304688 L 220 49.304688 L 220 108 L 153 108 Z M 153 49.304688 " clip-rule="nonzero"/></clipPath></defs><rect x="-37.5" width="450" fill="#ffffff" y="-37.499999" height="449.999989" fill-opacity="1"/><rect x="-37.5" width="450" fill="#ffffff" y="-37.499999" height="449.999989" fill-opacity="1"/><rect x="-37.5" width="450" fill="#ffffff" y="-37.499999" height="449.999989" fill-opacity="1"/><rect x="-37.5" width="450" fill="#ffffff" y="-37.499999" height="449.999989" fill-opacity="1"/><path fill="#c3d9e8" d="M 265.136719 0 L 375 109.863281 L 375 265.136719 L 265.136719 375 L 109.863281 375 L 0 265.136719 L 0 109.863281 L 109.863281 0 L 265.136719 0 " fill-opacity="1" fill-rule="nonzero"/><path fill="#2b5a7b" d="M 44.292969 182.023438 L 66.699219 159.597656 L 187.445312 280.464844 L 308.121094 159.671875 L 330.445312 182.019531 L 187.367188 325.242188 L 44.285156 182.019531 Z M 44.292969 182.023438 " fill-opacity="1" fill-rule="nonzero"/><g clip-path="url(#id1)"><path stroke-linecap="butt" transform="matrix(0.584147, 0, 0, 0.584724, 41.917646, 42.754725)" fill="none" stroke-linejoin="miter" d="M 4.066311 238.178435 L 42.423527 199.825689 L 249.128531 406.533693 L 455.713168 199.952619 L 493.929955 238.171754 L 248.994789 483.112255 L 4.052937 238.171754 Z M 4.066311 238.178435 " stroke="#000000" stroke-width="2" stroke-opacity="1" stroke-miterlimit="4"/></g><path stroke-linecap="butt" transform="matrix(0.877038, 0, 0, 0.877905, -31.31101, -30.645712)" fill-opacity="1" fill="#2b5a7b" fill-rule="nonzero" stroke-linejoin="miter" d="M 100.710145 255.140885 L 110.424126 245.423148 " stroke="#000000" stroke-width="2" stroke-opacity="1" stroke-miterlimit="4"/><path stroke-linecap="butt" transform="matrix(0.877038, 0, 0, 0.877905, -31.31101, -30.645712)" fill-opacity="1" fill="#2b5a7b" fill-rule="nonzero" stroke-linejoin="miter" d="M 114.290121 268.720799 L 124.004101 259.003062 " stroke="#000000" stroke-width="2" stroke-opacity="1" stroke-miterlimit="4"/><path stroke-linecap="butt" transform="matrix(0.877038, 0, 0, 0.877905, -31.31101, -30.645712)" fill-opacity="1" fill="#2b5a7b" fill-rule="nonzero" stroke-linejoin="miter" d="M 127.879004 282.300714 L 137.597439 272.582977 " stroke="#000000" stroke-width="2" stroke-opacity="1" stroke-miterlimit="4"/><path stroke-linecap="butt" transform="matrix(0.877038, 0, 0, 0.877905, -31.31101, -30.645712)" fill-opacity="1" fill="#2b5a7b" fill-rule="nonzero" stroke-linejoin="miter" d="M 141.45898 295.889527 L 151.177415 286.17624 " stroke="#000000" stroke-width="2" stroke-opacity="1" stroke-miterlimit="4"/><path stroke-linecap="butt" transform="matrix(0.877038, 0, 0, 0.877905, -31.31101, -30.645712)" fill-opacity="1" fill="#2b5a7b" fill-rule="nonzero" stroke-linejoin="miter" d="M 155.038956 309.469442 L 164.75739 299.756154 " stroke="#000000" stroke-width="2" stroke-opacity="1" stroke-miterlimit="4"/><path stroke-linecap="butt" transform="matrix(0.877038, 0, 0, 0.877905, -31.31101, -30.645712)" fill-opacity="1" fill="#2b5a7b" fill-rule="nonzero" stroke-linejoin="miter" d="M 168.627839 323.049356 L 178.346274 313.336069 " stroke="#000000" stroke-width="2" stroke-opacity="1" stroke-miterlimit="4"/><path stroke-linecap="butt" transform="matrix(0.877038, 0, 0, 0.877905, -31.31101, -30.645712)" fill-opacity="1" fill="#2b5a7b" fill-rule="nonzero" stroke-linejoin="miter" d="M 182.207815 336.638169 L 191.92625 326.924882 " stroke="#000000" stroke-width="2" stroke-opacity="1" stroke-miterlimit="4"/><path stroke-linecap="butt" transform="matrix(0.877038, 0, 0, 0.877905, -31.31101, -30.645712)" fill-opacity="1" fill="#2b5a7b" fill-rule="nonzero" stroke-linejoin="miter" d="M 195.787791 350.218084 L 205.506225 340.504796 " stroke="#000000" stroke-width="2" stroke-opacity="1" stroke-miterlimit="4"/><path stroke-linecap="butt" transform="matrix(0.877038, 0, 0, 0.877905, -31.31101, -30.645712)" fill-opacity="1" fill="#2b5a7b" fill-rule="nonzero" stroke-linejoin="miter" d="M 209.381128 363.811347 L 219.095109 354.09361 " stroke="#000000" stroke-width="2" stroke-opacity="1" stroke-miterlimit="4"/><path stroke-linecap="butt" transform="matrix(0.877038, 0, 0, 0.877905, -31.31101, -30.645712)" fill-opacity="1" fill="#2b5a7b" fill-rule="nonzero" stroke-linejoin="miter" d="M 222.961104 377.391261 L 232.675085 367.673524 " stroke="#000000" stroke-width="2" stroke-opacity="1" stroke-miterlimit="4"/><path stroke-linecap="butt" transform="matrix(0.877038, 0, 0, 0.877905, -31.31101, -30.645712)" fill-opacity="1" fill="#2b5a7b" fill-rule="nonzero" stroke-linejoin="miter" d="M 236.54108 390.971176 L 246.25506 381.253439 " stroke="#000000" stroke-width="2" stroke-opacity="1" stroke-miterlimit="4"/><path stroke-linecap="butt" transform="matrix(0.877038, 0, 0, 0.877905, -31.31101, -30.645712)" fill-opacity="1" fill="#2b5a7b" fill-rule="nonzero" stroke-linejoin="miter" d="M 107.391012 261.899695 L 112.281407 257.005231 " stroke="#000000" stroke-width="2" stroke-opacity="1" stroke-miterlimit="4"/><path stroke-linecap="butt" transform="matrix(0.877038, 0, 0, 0.877905, -31.31101, -30.645712)" fill-opacity="1" fill="#2b5a7b" fill-rule="nonzero" stroke-linejoin="miter" d="M 120.988803 275.501857 L 125.883652 270.607393 " stroke="#000000" stroke-width="2" stroke-opacity="1" stroke-miterlimit="4"/><path stroke-linecap="butt" transform="matrix(0.877038, 0, 0, 0.877905, -31.31101, -30.645712)" fill-opacity="1" fill="#2b5a7b" fill-rule="nonzero" stroke-linejoin="miter" d="M 134.582141 289.09957 L 139.472536 284.205105 " stroke="#000000" stroke-width="2" stroke-opacity="1" stroke-miterlimit="4"/><path stroke-linecap="butt" transform="matrix(0.877038, 0, 0, 0.877905, -31.31101, -30.645712)" fill-opacity="1" fill="#2b5a7b" fill-rule="nonzero" stroke-linejoin="miter" d="M 148.179932 302.701732 L 153.074781 297.807267 " stroke="#000000" stroke-width="2" stroke-opacity="1" stroke-miterlimit="4"/><path stroke-linecap="butt" transform="matrix(0.877038, 0, 0, 0.877905, -31.31101, -30.645712)" fill-opacity="1" fill="#2b5a7b" fill-rule="nonzero" stroke-linejoin="miter" d="M 161.782177 316.299444 L 166.672572 311.40498 " stroke="#000000" stroke-width="2" stroke-opacity="1" stroke-miterlimit="4"/><path stroke-linecap="butt" transform="matrix(0.877038, 0, 0, 0.877905, -31.31101, -30.645712)" fill-opacity="1" fill="#2b5a7b" fill-rule="nonzero" stroke-linejoin="miter" d="M 175.379969 329.901606 L 180.274817 325.007142 " stroke="#000000" stroke-width="2" stroke-opacity="1" stroke-miterlimit="4"/><path stroke-linecap="butt" transform="matrix(0.877038, 0, 0, 0.877905, -31.31101, -30.645712)" fill-opacity="1" fill="#2b5a7b" fill-rule="nonzero" stroke-linejoin="miter" d="M 188.982214 343.499319 L 193.872609 338.604854 " stroke="#000000" stroke-width="2" stroke-opacity="1" stroke-miterlimit="4"/><path stroke-linecap="butt" transform="matrix(0.877038, 0, 0, 0.877905, -31.31101, -30.645712)" fill-opacity="1" fill="#2b5a7b" fill-rule="nonzero" stroke-linejoin="miter" d="M 202.580006 357.101481 L 207.474854 352.207016 " stroke="#000000" stroke-width="2" stroke-opacity="1" stroke-miterlimit="4"/><path stroke-linecap="butt" transform="matrix(0.877038, 0, 0, 0.877905, -31.31101, -30.645712)" fill-opacity="1" fill="#2b5a7b" fill-rule="nonzero" stroke-linejoin="miter" d="M 216.177797 370.690294 L 221.072645 365.79583 " stroke="#000000" stroke-width="2" stroke-opacity="1" stroke-miterlimit="4"/><path stroke-linecap="butt" transform="matrix(0.877038, 0, 0, 0.877905, -31.31101, -30.645712)" fill-opacity="1" fill="#2b5a7b" fill-rule="nonzero" stroke-linejoin="miter" d="M 229.780042 384.288007 L 234.674891 379.397992 " stroke="#000000" stroke-width="2" stroke-opacity="1" stroke-miterlimit="4"/><path fill="#2b5a7b" d="M 182.140625 318.664062 L 186.433594 314.367188 " fill-opacity="1" fill-rule="nonzero"/><g clip-path="url(#id2)"><path stroke-linecap="butt" transform="matrix(0.877038, 0, 0, 0.877905, -31.31101, -30.645712)" fill="none" stroke-linejoin="miter" d="M 243.377834 397.890169 L 248.272682 392.995704 " stroke="#000000" stroke-width="2" stroke-opacity="1" stroke-miterlimit="4"/></g><path fill="#2b5a7b" d="M 50.945312 187.339844 L 55.234375 183.042969 " fill-opacity="1" fill-rule="nonzero"/><g clip-path="url(#id3)"><path stroke-linecap="butt" transform="matrix(0.877038, 0, 0, 0.877905, -31.31101, -30.645712)" fill="none" stroke-linejoin="miter" d="M 93.788767 248.301983 L 98.679161 243.407518 " stroke="#000000" stroke-width="2" stroke-opacity="1" stroke-miterlimit="4"/></g><path stroke-linecap="butt" transform="matrix(0.877038, 0, 0, 0.877905, -31.31101, -30.645712)" fill-opacity="1" fill="#2b5a7b" fill-rule="nonzero" stroke-linejoin="miter" d="M 397.91965 255.510194 L 388.205669 245.792457 " stroke="#000000" stroke-width="2" stroke-opacity="1" stroke-miterlimit="4"/><path stroke-linecap="butt" transform="matrix(0.877038, 0, 0, 0.877905, -31.31101, -30.645712)" fill-opacity="1" fill="#2b5a7b" fill-rule="nonzero" stroke-linejoin="miter" d="M 384.339674 269.090109 L 374.625693 259.372372 " stroke="#000000" stroke-width="2" stroke-opacity="1" stroke-miterlimit="4"/><path stroke-linecap="butt" transform="matrix(0.877038, 0, 0, 0.877905, -31.31101, -30.645712)" fill-opacity="1" fill="#2b5a7b" fill-rule="nonzero" stroke-linejoin="miter" d="M 370.750791 282.678922 L 361.032356 272.965635 " stroke="#000000" stroke-width="2" stroke-opacity="1" stroke-miterlimit="4"/><path stroke-linecap="butt" transform="matrix(0.877038, 0, 0, 0.877905, -31.31101, -30.645712)" fill-opacity="1" fill="#2b5a7b" fill-rule="nonzero" stroke-linejoin="miter" d="M 357.170815 296.258837 L 347.45238 286.545549 " stroke="#000000" stroke-width="2" stroke-opacity="1" stroke-miterlimit="4"/><path stroke-linecap="butt" transform="matrix(0.877038, 0, 0, 0.877905, -31.31101, -30.645712)" fill-opacity="1" fill="#2b5a7b" fill-rule="nonzero" stroke-linejoin="miter" d="M 343.581931 309.8521 L 333.863497 300.134363 " stroke="#000000" stroke-width="2" stroke-opacity="1" stroke-miterlimit="4"/><path stroke-linecap="butt" transform="matrix(0.877038, 0, 0, 0.877905, -31.31101, -30.645712)" fill-opacity="1" fill="#2b5a7b" fill-rule="nonzero" stroke-linejoin="miter" d="M 330.001956 323.432014 L 320.283521 313.714277 " stroke="#000000" stroke-width="2" stroke-opacity="1" stroke-miterlimit="4"/><path stroke-linecap="butt" transform="matrix(0.877038, 0, 0, 0.877905, -31.31101, -30.645712)" fill-opacity="1" fill="#2b5a7b" fill-rule="nonzero" stroke-linejoin="miter" d="M 316.42198 337.011929 L 306.703545 327.294192 " stroke="#000000" stroke-width="2" stroke-opacity="1" stroke-miterlimit="4"/><path stroke-linecap="butt" transform="matrix(0.877038, 0, 0, 0.877905, -31.31101, -30.645712)" fill-opacity="1" fill="#2b5a7b" fill-rule="nonzero" stroke-linejoin="miter" d="M 302.828642 350.600742 L 293.114662 340.883005 " stroke="#000000" stroke-width="2" stroke-opacity="1" stroke-miterlimit="4"/><path stroke-linecap="butt" transform="matrix(0.877038, 0, 0, 0.877905, -31.31101, -30.645712)" fill-opacity="1" fill="#2b5a7b" fill-rule="nonzero" stroke-linejoin="miter" d="M 289.248667 364.180657 L 279.534686 354.46292 " stroke="#000000" stroke-width="2" stroke-opacity="1" stroke-miterlimit="4"/><path stroke-linecap="butt" transform="matrix(0.877038, 0, 0, 0.877905, -31.31101, -30.645712)" fill-opacity="1" fill="#2b5a7b" fill-rule="nonzero" stroke-linejoin="miter" d="M 275.668691 377.760571 L 265.95471 368.042834 " stroke="#000000" stroke-width="2" stroke-opacity="1" stroke-miterlimit="4"/><path stroke-linecap="butt" transform="matrix(0.877038, 0, 0, 0.877905, -31.31101, -30.645712)" fill-opacity="1" fill="#2b5a7b" fill-rule="nonzero" stroke-linejoin="miter" d="M 262.079807 391.349384 L 252.365827 381.636097 " stroke="#000000" stroke-width="2" stroke-opacity="1" stroke-miterlimit="4"/><path stroke-linecap="butt" transform="matrix(0.877038, 0, 0, 0.877905, -31.31101, -30.645712)" fill-opacity="1" fill="#2b5a7b" fill-rule="nonzero" stroke-linejoin="miter" d="M 391.238783 262.277904 L 386.348388 257.387889 " stroke="#000000" stroke-width="2" stroke-opacity="1" stroke-miterlimit="4"/><path stroke-linecap="butt" transform="matrix(0.877038, 0, 0, 0.877905, -31.31101, -30.645712)" fill-opacity="1" fill="#2b5a7b" fill-rule="nonzero" stroke-linejoin="miter" d="M 377.640991 275.871167 L 372.746143 270.976702 " stroke="#000000" stroke-width="2" stroke-opacity="1" stroke-miterlimit="4"/><path stroke-linecap="butt" transform="matrix(0.877038, 0, 0, 0.877905, -31.31101, -30.645712)" fill-opacity="1" fill="#2b5a7b" fill-rule="nonzero" stroke-linejoin="miter" d="M 364.038746 289.468879 L 359.148351 284.578864 " stroke="#000000" stroke-width="2" stroke-opacity="1" stroke-miterlimit="4"/><path stroke-linecap="butt" transform="matrix(0.877038, 0, 0, 0.877905, -31.31101, -30.645712)" fill-opacity="1" fill="#2b5a7b" fill-rule="nonzero" stroke-linejoin="miter" d="M 350.440955 303.071041 L 345.546106 298.176577 " stroke="#000000" stroke-width="2" stroke-opacity="1" stroke-miterlimit="4"/><path stroke-linecap="butt" transform="matrix(0.877038, 0, 0, 0.877905, -31.31101, -30.645712)" fill-opacity="1" fill="#2b5a7b" fill-rule="nonzero" stroke-linejoin="miter" d="M 336.838709 316.668754 L 331.948315 311.778739 " stroke="#000000" stroke-width="2" stroke-opacity="1" stroke-miterlimit="4"/><path stroke-linecap="butt" transform="matrix(0.877038, 0, 0, 0.877905, -31.31101, -30.645712)" fill-opacity="1" fill="#2b5a7b" fill-rule="nonzero" stroke-linejoin="miter" d="M 323.240918 330.270916 L 318.346069 325.376451 " stroke="#000000" stroke-width="2" stroke-opacity="1" stroke-miterlimit="4"/><path stroke-linecap="butt" transform="matrix(0.877038, 0, 0, 0.877905, -31.31101, -30.645712)" fill-opacity="1" fill="#2b5a7b" fill-rule="nonzero" stroke-linejoin="miter" d="M 309.652035 343.868628 L 304.757186 338.978613 " stroke="#000000" stroke-width="2" stroke-opacity="1" stroke-miterlimit="4"/><path stroke-linecap="butt" transform="matrix(0.877038, 0, 0, 0.877905, -31.31101, -30.645712)" fill-opacity="1" fill="#2b5a7b" fill-rule="nonzero" stroke-linejoin="miter" d="M 296.049789 357.470791 L 291.154941 352.576326 " stroke="#000000" stroke-width="2" stroke-opacity="1" stroke-miterlimit="4"/><path stroke-linecap="butt" transform="matrix(0.877038, 0, 0, 0.877905, -31.31101, -30.645712)" fill-opacity="1" fill="#2b5a7b" fill-rule="nonzero" stroke-linejoin="miter" d="M 282.451998 371.068503 L 277.557149 366.178488 " stroke="#000000" stroke-width="2" stroke-opacity="1" stroke-miterlimit="4"/><path stroke-linecap="butt" transform="matrix(0.877038, 0, 0, 0.877905, -31.31101, -30.645712)" fill-opacity="1" fill="#2b5a7b" fill-rule="nonzero" stroke-linejoin="miter" d="M 268.849753 384.670665 L 263.954904 379.7762 " stroke="#000000" stroke-width="2" stroke-opacity="1" stroke-miterlimit="4"/><path fill="#2b5a7b" d="M 192.554688 318.996094 L 188.261719 314.703125 " fill-opacity="1" fill-rule="nonzero"/><g clip-path="url(#id4)"><path stroke-linecap="butt" transform="matrix(0.877038, 0, 0, 0.877905, -31.31101, -30.645712)" fill="none" stroke-linejoin="miter" d="M 255.251961 398.268378 L 250.357113 393.378363 " stroke="#000000" stroke-width="2" stroke-opacity="1" stroke-miterlimit="4"/></g><path fill="#2b5a7b" d="M 323.75 187.671875 L 319.457031 183.375 " fill-opacity="1" fill-rule="nonzero"/><g clip-path="url(#id5)"><path stroke-linecap="butt" transform="matrix(0.877038, 0, 0, 0.877905, -31.31101, -30.645712)" fill="none" stroke-linejoin="miter" d="M 404.841028 248.680191 L 399.946179 243.785727 " stroke="#000000" stroke-width="2" stroke-opacity="1" stroke-miterlimit="4"/></g><path fill="#2b5a7b" d="M 196.445312 63.367188 L 170.234375 78.515625 L 211.9375 150.816406 C 242.253906 151.933594 260.972656 216.980469 285.488281 250.054688 C 296.15625 242.695312 299.121094 259.691406 325.363281 286.875 Z M 196.445312 63.367188 " fill-opacity="1" fill-rule="nonzero"/><g clip-path="url(#id6)"><path stroke-linecap="butt" transform="matrix(0.877038, 0, 0, 0.877905, -31.31101, -30.645712)" fill="none" stroke-linejoin="miter" d="M 259.688057 107.087781 L 229.802312 124.342993 L 277.352269 206.699034 C 311.919075 207.971595 333.262219 282.064889 361.214966 319.738918 C 373.378598 311.356035 376.759117 330.715867 406.680493 361.68003 Z M 259.688057 107.087781 " stroke="#000000" stroke-width="2" stroke-opacity="1" stroke-miterlimit="4"/></g><path fill="#2b5a7b" d="M 178.273438 63.367188 L 204.488281 78.515625 L 162.785156 150.816406 C 132.46875 151.933594 113.75 216.980469 89.234375 250.054688 C 78.566406 242.695312 75.601562 259.691406 49.359375 286.875 Z M 178.273438 63.367188 " fill-opacity="1" fill-rule="nonzero"/><g clip-path="url(#id7)"><path stroke-linecap="butt" transform="matrix(0.877038, 0, 0, 0.877905, -31.31101, -30.645712)" fill="none" stroke-linejoin="miter" d="M 238.968461 107.087781 L 268.85866 124.342993 L 221.308703 206.699034 C 186.741897 207.971595 165.398754 282.064889 137.446006 319.738918 C 125.282374 311.356035 121.901855 330.715867 91.980479 361.68003 Z M 238.968461 107.087781 " stroke="#000000" stroke-width="2" stroke-opacity="1" stroke-miterlimit="4"/></g><path fill="#2b5a7b" d="M 210.847656 74.527344 C 210.851562 87.917969 200.007812 98.78125 186.628906 98.78125 C 173.25 98.78125 162.40625 87.917969 162.410156 74.527344 C 162.40625 61.136719 173.25 50.273438 186.628906 50.273438 C 200.007812 50.273438 210.851562 61.136719 210.847656 74.527344 Z M 210.847656 74.527344 " fill-opacity="1" fill-rule="nonzero"/><g clip-path="url(#id8)"><path stroke-linecap="butt" transform="matrix(0.877038, 0, 0, 0.877905, -31.31101, -30.645712)" fill="none" stroke-linejoin="miter" d="M 276.109628 119.80004 C 276.114082 135.052971 263.750024 147.427068 248.495378 147.427068 C 233.240731 147.427068 220.876673 135.052971 220.881127 119.80004 C 220.876673 104.547108 233.240731 92.173012 248.495378 92.173012 C 263.750024 92.173012 276.114082 104.547108 276.109628 119.80004 Z M 276.109628 119.80004 " stroke="#000000" stroke-width="2.235" stroke-opacity="1" stroke-miterlimit="4"/></g><path fill="#2b5a7b" d="M 206.15625 74.527344 C 206.160156 85.324219 197.414062 94.082031 186.628906 94.082031 C 175.839844 94.082031 167.097656 85.324219 167.101562 74.527344 C 167.097656 63.730469 175.839844 54.972656 186.628906 54.972656 C 197.414062 54.972656 206.160156 63.730469 206.15625 74.527344 Z M 206.15625 74.527344 " fill-opacity="1" fill-rule="nonzero"/><g clip-path="url(#id9)"><path stroke-linecap="butt" transform="matrix(0.877038, 0, 0, 0.877905, -31.31101, -30.645712)" fill="none" stroke-linejoin="miter" d="M 270.760481 119.80004 C 270.764934 132.098495 260.792627 142.074303 248.495378 142.074303 C 236.193675 142.074303 226.225821 132.098495 226.230275 119.80004 C 226.225821 107.501585 236.193675 97.525777 248.495378 97.525777 C 260.792627 97.525777 270.764934 107.501585 270.760481 119.80004 Z M 270.760481 119.80004 " stroke="#000000" stroke-width="2.772" stroke-opacity="1" stroke-miterlimit="4"/></g></svg>