<svg xmlns="http://www.w3.org/2000/svg" xmlns:xlink="http://www.w3.org/1999/xlink" width="500" zoomAndPan="magnify" viewBox="0 0 375 374.999991" height="500" preserveAspectRatio="xMidYMid meet" version="1.0"><defs><clipPath id="id1"><path d="M 213 209 L 316.589844 209 L 316.589844 270 L 213 270 Z M 213 209 " clip-rule="nonzero"/></clipPath><clipPath id="id2"><path d="M 65 33.691406 L 104 33.691406 L 104 56 L 65 56 Z M 65 33.691406 " clip-rule="nonzero"/></clipPath><clipPath id="id3"><path d="M 43.007812 232 L 64 232 L 64 246 L 43.007812 246 Z M 43.007812 232 " clip-rule="nonzero"/></clipPath><clipPath id="id4"><path d="M 208 323 L 229 323 L 229 337.382812 L 208 337.382812 Z M 208 323 " clip-rule="nonzero"/></clipPath></defs><rect x="-37.5" width="450" fill="#ffffff" y="-37.499999" height="449.999989" fill-opacity="1"/><rect x="-37.5" width="450" fill="#ffffff" y="-37.499999" height="449.999989" fill-opacity="1"/><rect x="-37.5" width="450" fill="#ffffff" y="-37.499999" height="449.999989" fill-opacity="1"/><rect x="-37.5" width="450" fill="#ffffff" y="-37.499999" height="449.999989" fill-opacity="1"/><path fill="#c3d9e8" d="M 265.136719 0 L 375 109.863281 L 375 265.136719 L 265.136719 375 L 109.863281 375 L 0 265.136719 L 0 109.863281 L 109.863281 0 L 265.136719 0 " fill-opacity="1" fill-rule="nonzero"/><path fill="#2b5a7b" d="M 124 109.566406 L 195.417969 150.742188 L 266.839844 109.566406 L 195.417969 68.390625 Z M 195.417969 156.203125 C 194.976562 156.203125 194.535156 156.085938 194.152344 155.871094 L 117.660156 111.765625 C 116.878906 111.3125 116.390625 110.476562 116.390625 109.566406 C 116.390625 108.660156 116.878906 107.824219 117.660156 107.367188 L 194.152344 63.265625 C 194.535156 63.050781 194.976562 62.929688 195.417969 62.929688 C 195.863281 62.929688 196.304688 63.050781 196.6875 63.265625 L 273.179688 107.367188 C 273.96875 107.824219 274.460938 108.671875 274.460938 109.566406 C 274.460938 110.476562 273.96875 111.3125 273.179688 111.765625 L 196.6875 155.871094 C 196.304688 156.085938 195.863281 156.203125 195.417969 156.203125 " fill-opacity="1" fill-rule="nonzero"/><path fill="#ffffff" d="M 195.417969 81.402344 L 244.261719 109.566406 L 195.417969 137.730469 C 206.570312 120.609375 206.570312 98.527344 195.417969 81.402344 " fill-opacity="1" fill-rule="nonzero"/><path fill="#2b5a7b" d="M 116.390625 199.242188 L 116.390625 109.566406 C 116.390625 108.167969 117.527344 107.035156 118.925781 107.035156 C 120.328125 107.035156 121.464844 108.167969 121.464844 109.566406 L 121.464844 196.316406 L 195.417969 238.949219 L 269.375 196.316406 L 269.375 109.566406 C 269.375 108.167969 270.511719 107.035156 271.910156 107.035156 C 273.3125 107.035156 274.460938 108.167969 274.460938 109.566406 L 274.460938 199.242188 L 195.417969 244.804688 L 116.390625 199.242188 " fill-opacity="1" fill-rule="nonzero"/><path fill="#2b5a7b" d="M 195.417969 214.800781 C 194.019531 214.800781 192.882812 213.652344 192.882812 212.269531 L 192.882812 153.671875 C 192.882812 152.273438 194.019531 151.136719 195.417969 151.136719 C 196.820312 151.136719 197.957031 152.273438 197.957031 153.671875 L 197.957031 212.269531 C 197.957031 213.652344 196.820312 214.800781 195.417969 214.800781 " fill-opacity="1" fill-rule="nonzero"/><path fill="#2b5a7b" d="M 286.007812 239.882812 C 285.5625 239.882812 285.121094 239.773438 284.738281 239.546875 L 266.074219 228.792969 C 265.488281 228.445312 265.066406 227.910156 264.898438 227.25 C 264.722656 226.59375 264.816406 225.914062 265.152344 225.328125 C 265.605469 224.539062 266.445312 224.0625 267.351562 224.0625 C 267.796875 224.0625 268.226562 224.167969 268.609375 224.394531 L 287.273438 235.160156 C 287.859375 235.496094 288.28125 236.046875 288.460938 236.691406 C 288.640625 237.347656 288.542969 238.03125 288.207031 238.617188 C 287.753906 239.402344 286.914062 239.882812 286.007812 239.882812 " fill-opacity="1" fill-rule="nonzero"/><g clip-path="url(#id1)"><path fill="#2b5a7b" d="M 215.089844 258.1875 C 214.492188 257.851562 214.074219 257.304688 213.90625 256.65625 C 213.726562 256 213.808594 255.320312 214.15625 254.734375 C 214.597656 253.945312 215.449219 253.457031 216.359375 253.457031 C 216.800781 253.457031 217.230469 253.574219 217.613281 253.800781 L 235.011719 263.828125 L 306.429688 222.652344 L 291.570312 214.085938 C 290.984375 213.75 290.566406 213.199219 290.398438 212.542969 C 290.21875 211.898438 290.3125 211.203125 290.648438 210.632812 C 291.105469 209.84375 291.941406 209.351562 292.851562 209.351562 C 293.292969 209.351562 293.722656 209.472656 294.117188 209.699219 L 316.578125 222.652344 L 235.011719 269.683594 L 215.089844 258.1875 " fill-opacity="1" fill-rule="nonzero"/></g><path fill="#2b5a7b" d="M 252.230469 317.65625 C 251.785156 317.65625 251.34375 317.539062 250.960938 317.324219 L 83.390625 220.703125 C 82.804688 220.371094 82.386719 219.820312 82.207031 219.164062 C 82.027344 218.503906 82.121094 217.824219 82.457031 217.238281 C 82.910156 216.460938 83.75 215.972656 84.660156 215.972656 C 85.101562 215.972656 85.542969 216.089844 85.925781 216.320312 L 253.496094 312.9375 C 254.71875 313.628906 255.136719 315.183594 254.429688 316.390625 C 253.976562 317.179688 253.136719 317.65625 252.230469 317.65625 " fill-opacity="1" fill-rule="nonzero"/><path fill="#2b5a7b" d="M 84.660156 221.039062 C 83.257812 221.039062 82.121094 219.902344 82.121094 218.503906 L 82.121094 59.394531 C 82.121094 57.996094 83.257812 56.859375 84.660156 56.859375 C 86.058594 56.859375 87.195312 57.996094 87.195312 59.394531 L 87.195312 218.503906 C 87.195312 219.902344 86.058594 221.039062 84.660156 221.039062 " fill-opacity="1" fill-rule="nonzero"/><g clip-path="url(#id2)"><path fill="#2b5a7b" d="M 100.8125 55.964844 C 100.140625 55.964844 99.496094 55.691406 99.015625 55.210938 L 84.660156 40.875 L 70.300781 55.210938 C 69.808594 55.691406 69.175781 55.953125 68.503906 55.953125 C 67.824219 55.953125 67.191406 55.691406 66.710938 55.210938 C 66.230469 54.734375 65.957031 54.101562 65.957031 53.429688 C 65.957031 52.75 66.230469 52.105469 66.710938 51.628906 L 84.660156 33.703125 L 102.605469 51.628906 C 103.085938 52.105469 103.347656 52.75 103.347656 53.417969 C 103.347656 54.101562 103.085938 54.734375 102.605469 55.210938 C 102.128906 55.691406 101.492188 55.964844 100.8125 55.964844 " fill-opacity="1" fill-rule="nonzero"/></g><path fill="#2b5a7b" d="M 253.210938 333.144531 C 251.90625 333.144531 250.828125 332.175781 250.6875 330.882812 C 250.542969 329.488281 251.546875 328.242188 252.945312 328.089844 L 272.773438 325.960938 L 269.304688 314.71875 C 269.113281 314.074219 269.171875 313.390625 269.484375 312.792969 C 269.804688 312.183594 270.332031 311.753906 270.976562 311.550781 C 271.230469 311.480469 271.480469 311.433594 271.730469 311.433594 C 272.832031 311.433594 273.828125 312.171875 274.160156 313.222656 L 279.4375 330.335938 L 253.484375 333.128906 L 253.210938 333.144531 " fill-opacity="1" fill-rule="nonzero"/><g clip-path="url(#id3)"><path fill="#2b5a7b" d="M 45.652344 245.699219 C 44.753906 245.699219 43.90625 245.210938 43.449219 244.433594 C 43.117188 243.847656 43.03125 243.167969 43.199219 242.511719 C 43.378906 241.851562 43.796875 241.316406 44.382812 240.96875 L 59.304688 232.378906 C 59.6875 232.152344 60.128906 232.03125 60.574219 232.03125 C 61.46875 232.03125 62.320312 232.519531 62.773438 233.296875 C 63.109375 233.882812 63.191406 234.566406 63.027344 235.222656 C 62.847656 235.878906 62.425781 236.429688 61.839844 236.761719 L 46.921875 245.367188 C 46.539062 245.582031 46.105469 245.699219 45.652344 245.699219 " fill-opacity="1" fill-rule="nonzero"/></g><path fill="#2b5a7b" d="M 66.484375 257.160156 C 65.574219 257.160156 64.738281 256.683594 64.28125 255.894531 C 63.945312 255.308594 63.851562 254.625 64.03125 253.96875 C 64.199219 253.324219 64.617188 252.773438 65.203125 252.441406 L 80.125 243.835938 C 80.507812 243.609375 80.949219 243.492188 81.390625 243.492188 C 82.289062 243.492188 83.140625 243.980469 83.59375 244.769531 C 84.289062 245.976562 83.867188 247.527344 82.660156 248.222656 L 67.75 256.824219 C 67.355469 257.050781 66.925781 257.160156 66.484375 257.160156 " fill-opacity="1" fill-rule="nonzero"/><path fill="#2b5a7b" d="M 87.304688 268.628906 C 86.394531 268.628906 85.554688 268.140625 85.101562 267.363281 C 84.394531 266.144531 84.8125 264.59375 86.035156 263.898438 L 100.941406 255.296875 C 101.335938 255.082031 101.769531 254.960938 102.210938 254.960938 C 103.121094 254.960938 103.957031 255.4375 104.414062 256.226562 C 105.105469 257.433594 104.699219 258.988281 103.480469 259.691406 L 88.570312 268.285156 C 88.1875 268.511719 87.746094 268.628906 87.304688 268.628906 " fill-opacity="1" fill-rule="nonzero"/><path fill="#2b5a7b" d="M 108.121094 280.089844 C 107.210938 280.089844 106.375 279.601562 105.921875 278.824219 C 105.585938 278.238281 105.488281 277.554688 105.667969 276.898438 C 105.847656 276.242188 106.265625 275.703125 106.855469 275.359375 L 121.761719 266.765625 C 122.15625 266.539062 122.601562 266.421875 123.03125 266.421875 C 123.941406 266.421875 124.777344 266.910156 125.230469 267.6875 C 125.578125 268.273438 125.664062 268.953125 125.496094 269.609375 C 125.316406 270.269531 124.898438 270.816406 124.3125 271.152344 L 109.390625 279.753906 C 109.007812 279.96875 108.566406 280.089844 108.121094 280.089844 " fill-opacity="1" fill-rule="nonzero"/><path fill="#2b5a7b" d="M 128.953125 291.546875 C 128.042969 291.546875 127.195312 291.070312 126.75 290.28125 C 126.40625 289.695312 126.320312 289.015625 126.488281 288.359375 C 126.667969 287.714844 127.085938 287.164062 127.671875 286.828125 L 142.59375 278.226562 C 142.976562 278 143.417969 277.878906 143.863281 277.878906 C 144.757812 277.878906 145.609375 278.371094 146.0625 279.15625 C 146.757812 280.363281 146.339844 281.917969 145.128906 282.609375 L 130.210938 291.214844 C 129.828125 291.429688 129.382812 291.546875 128.953125 291.546875 " fill-opacity="1" fill-rule="nonzero"/><path fill="#2b5a7b" d="M 149.773438 303.019531 C 148.863281 303.019531 148.027344 302.53125 147.570312 301.753906 C 146.863281 300.535156 147.285156 298.980469 148.503906 298.289062 L 163.414062 289.683594 C 163.796875 289.457031 164.238281 289.351562 164.679688 289.351562 C 165.578125 289.351562 166.429688 289.828125 166.882812 290.617188 C 167.21875 291.203125 167.3125 291.882812 167.132812 292.539062 C 166.953125 293.199219 166.535156 293.734375 165.949219 294.082031 L 151.039062 302.671875 C 150.644531 302.898438 150.214844 303.019531 149.773438 303.019531 " fill-opacity="1" fill-rule="nonzero"/><path fill="#2b5a7b" d="M 170.589844 314.480469 C 169.695312 314.480469 168.84375 313.988281 168.390625 313.210938 C 168.054688 312.625 167.960938 311.945312 168.140625 311.289062 C 168.316406 310.632812 168.738281 310.082031 169.324219 309.746094 L 184.242188 301.15625 C 184.625 300.929688 185.058594 300.808594 185.5 300.808594 C 186.410156 300.808594 187.246094 301.300781 187.703125 302.074219 C 188.046875 302.660156 188.132812 303.34375 187.953125 304 C 187.785156 304.65625 187.367188 305.207031 186.78125 305.539062 L 171.859375 314.144531 C 171.476562 314.359375 171.035156 314.480469 170.589844 314.480469 " fill-opacity="1" fill-rule="nonzero"/><path fill="#2b5a7b" d="M 190.65625 325.925781 C 189.746094 325.925781 188.910156 325.449219 188.457031 324.660156 C 188.121094 324.074219 188.023438 323.390625 188.203125 322.734375 C 188.382812 322.078125 188.800781 321.539062 189.390625 321.195312 L 204.296875 312.601562 C 204.691406 312.375 205.136719 312.257812 205.566406 312.257812 C 206.476562 312.257812 207.3125 312.746094 207.765625 313.523438 C 208.460938 314.742188 208.054688 316.292969 206.847656 316.988281 L 191.925781 325.589844 C 191.542969 325.804688 191.101562 325.925781 190.65625 325.925781 " fill-opacity="1" fill-rule="nonzero"/><g clip-path="url(#id4)"><path fill="#2b5a7b" d="M 210.722656 337.382812 C 209.8125 337.382812 208.976562 336.894531 208.519531 336.117188 C 208.1875 335.519531 208.089844 334.839844 208.269531 334.195312 C 208.449219 333.539062 208.867188 332.988281 209.453125 332.652344 L 224.363281 324.050781 C 224.757812 323.824219 225.1875 323.703125 225.632812 323.703125 C 226.539062 323.703125 227.390625 324.191406 227.832031 324.980469 C 228.167969 325.566406 228.261719 326.25 228.097656 326.90625 C 227.917969 327.550781 227.496094 328.101562 226.910156 328.433594 L 211.992188 337.039062 C 211.609375 337.265625 211.164062 337.382812 210.722656 337.382812 " fill-opacity="1" fill-rule="nonzero"/></g></svg>