<?xml version="1.0" encoding="utf-8"?>
<svg width="296" height="296" viewBox="30.817 31.504 234.078 232.748" xmlns="http://www.w3.org/2000/svg">
  <defs>
    <rect id="p" width="8" height="8"/>
  </defs>
  <g fill="#000000">
    <rect width="8" height="8" transform="matrix(1, 0, 0, 1, 32, 32)"/>
    <rect width="8" height="8" transform="matrix(1, 0, 0, 1, 32, 40)"/>
    <rect width="8" height="8" transform="matrix(1, 0, 0, 1, 32, 48)"/>
    <rect width="8" height="8" transform="matrix(1, 0, 0, 1, 32, 56)"/>
    <rect width="8" height="8" transform="matrix(1, 0, 0, 1, 32, 64)"/>
    <rect width="8" height="8" transform="matrix(1, 0, 0, 1, 32, 72)"/>
    <rect width="8" height="8" transform="matrix(1, 0, 0, 1, 32, 80)"/>
    <rect width="8" height="8" transform="matrix(1, 0, 0, 1, 32, 96)"/>
    <rect width="8" height="8" transform="matrix(1, 0, 0, 1, 32, 104)"/>
    <rect width="8" height="8" transform="matrix(1, 0, 0, 1, 32, 112)"/>
    <rect width="8" height="8" transform="matrix(1, 0, 0, 1, 32, 120)"/>
    <rect width="8" height="8" transform="matrix(1, 0, 0, 1, 32, 128)"/>
    <rect width="8" height="8" transform="matrix(1, 0, 0, 1, 32, 136)"/>
    <rect width="8" height="8" transform="matrix(1, 0, 0, 1, 32, 144)"/>
    <rect width="8" height="8" transform="matrix(1, 0, 0, 1, 32, 168)"/>
    <rect width="8" height="8" transform="matrix(1, 0, 0, 1, 32, 184)"/>
    <rect width="8" height="8" transform="matrix(1, 0, 0, 1, 32, 192)"/>
    <rect width="8" height="8" transform="matrix(1, 0, 0, 1, 32, 208)"/>
    <rect width="8" height="8" transform="matrix(1, 0, 0, 1, 32, 216)"/>
    <rect width="8" height="8" transform="matrix(1, 0, 0, 1, 32, 224)"/>
    <rect width="8" height="8" transform="matrix(1, 0, 0, 1, 32, 232)"/>
    <rect width="8" height="8" transform="matrix(1, 0, 0, 1, 32, 240)"/>
    <rect width="8" height="8" transform="matrix(1, 0, 0, 1, 32, 248)"/>
    <rect width="8" height="8" transform="matrix(1, 0, 0, 1, 32, 256)"/>
    <rect width="8" height="8" transform="matrix(1, 0, 0, 1, 40, 32)"/>
    <rect width="8" height="8" transform="matrix(1, 0, 0, 1, 40, 80)"/>
    <rect width="8" height="8" transform="matrix(1, 0, 0, 1, 40, 96)"/>
    <rect width="8" height="8" transform="matrix(1, 0, 0, 1, 40, 120)"/>
    <rect width="8" height="8" transform="matrix(1, 0, 0, 1, 40, 152)"/>
    <rect width="8" height="8" transform="matrix(1, 0, 0, 1, 40, 160)"/>
    <rect width="8" height="8" transform="matrix(1, 0, 0, 1, 40, 168)"/>
    <rect width="8" height="8" transform="matrix(1, 0, 0, 1, 40, 176)"/>
    <rect width="8" height="8" transform="matrix(1, 0, 0, 1, 40, 184)"/>
    <rect width="8" height="8" transform="matrix(1, 0, 0, 1, 40, 208)"/>
    <rect width="8" height="8" transform="matrix(1, 0, 0, 1, 40, 256)"/>
    <rect width="8" height="8" transform="matrix(1, 0, 0, 1, 48, 32)"/>
    <rect width="8" height="8" transform="matrix(1, 0, 0, 1, 48, 48)"/>
    <rect width="8" height="8" transform="matrix(1, 0, 0, 1, 48, 56)"/>
    <rect width="8" height="8" transform="matrix(1, 0, 0, 1, 48, 64)"/>
    <rect width="8" height="8" transform="matrix(1, 0, 0, 1, 48, 80)"/>
    <rect width="8" height="8" transform="matrix(1, 0, 0, 1, 48, 96)"/>
    <rect width="8" height="8" transform="matrix(1, 0, 0, 1, 48, 112)"/>
    <rect width="8" height="8" transform="matrix(1, 0, 0, 1, 48, 144)"/>
    <rect width="8" height="8" transform="matrix(1, 0, 0, 1, 48, 152)"/>
    <rect width="8" height="8" transform="matrix(1, 0, 0, 1, 48, 160)"/>
    <rect width="8" height="8" transform="matrix(1, 0, 0, 1, 48, 176)"/>
    <rect width="8" height="8" transform="matrix(1, 0, 0, 1, 48, 184)"/>
    <rect width="8" height="8" transform="matrix(1, 0, 0, 1, 48, 208)"/>
    <rect width="8" height="8" transform="matrix(1, 0, 0, 1, 48, 224)"/>
    <rect width="8" height="8" transform="matrix(1, 0, 0, 1, 48, 232)"/>
    <rect width="8" height="8" transform="matrix(1, 0, 0, 1, 48, 240)"/>
    <rect width="8" height="8" transform="matrix(1, 0, 0, 1, 48, 256)"/>
    <rect width="8" height="8" transform="matrix(1, 0, 0, 1, 56, 32)"/>
    <rect width="8" height="8" transform="matrix(1, 0, 0, 1, 56, 48)"/>
    <rect width="8" height="8" transform="matrix(1, 0, 0, 1, 56, 56)"/>
    <rect width="8" height="8" transform="matrix(1, 0, 0, 1, 56, 64)"/>
    <rect width="8" height="8" transform="matrix(1, 0, 0, 1, 56, 80)"/>
    <rect width="8" height="8" transform="matrix(1, 0, 0, 1, 56, 96)"/>
    <rect width="8" height="8" transform="matrix(1, 0, 0, 1, 56, 112)"/>
    <rect width="8" height="8" transform="matrix(1, 0, 0, 1, 56, 128)"/>
    <rect width="8" height="8" transform="matrix(1, 0, 0, 1, 56, 152)"/>
    <rect width="8" height="8" transform="matrix(1, 0, 0, 1, 56, 208)"/>
    <rect width="8" height="8" transform="matrix(1, 0, 0, 1, 56, 224)"/>
    <rect width="8" height="8" transform="matrix(1, 0, 0, 1, 56, 232)"/>
    <rect width="8" height="8" transform="matrix(1, 0, 0, 1, 56, 240)"/>
    <rect width="8" height="8" transform="matrix(1, 0, 0, 1, 56, 256)"/>
    <rect width="8" height="8" transform="matrix(1, 0, 0, 1, 64, 32)"/>
    <rect width="8" height="8" transform="matrix(1, 0, 0, 1, 64, 48)"/>
    <rect width="8" height="8" transform="matrix(1, 0, 0, 1, 64, 56)"/>
    <rect width="8" height="8" transform="matrix(1, 0, 0, 1, 64, 64)"/>
    <rect width="8" height="8" transform="matrix(1, 0, 0, 1, 64, 80)"/>
    <rect width="8" height="8" transform="matrix(1, 0, 0, 1, 64, 104)"/>
    <rect width="8" height="8" transform="matrix(1, 0, 0, 1, 64, 120)"/>
    <rect width="8" height="8" transform="matrix(1, 0, 0, 1, 64, 144)"/>
    <rect width="8" height="8" transform="matrix(1, 0, 0, 1, 64, 160)"/>
    <rect width="8" height="8" transform="matrix(1, 0, 0, 1, 64, 184)"/>
    <rect width="8" height="8" transform="matrix(1, 0, 0, 1, 64, 192)"/>
    <rect width="8" height="8" transform="matrix(1, 0, 0, 1, 64, 208)"/>
    <rect width="8" height="8" transform="matrix(1, 0, 0, 1, 64, 224)"/>
    <rect width="8" height="8" transform="matrix(1, 0, 0, 1, 64, 232)"/>
    <rect width="8" height="8" transform="matrix(1, 0, 0, 1, 64, 240)"/>
    <rect width="8" height="8" transform="matrix(1, 0, 0, 1, 64, 256)"/>
    <rect width="8" height="8" transform="matrix(1, 0, 0, 1, 72, 32)"/>
    <rect width="8" height="8" transform="matrix(1, 0, 0, 1, 72, 80)"/>
    <rect width="8" height="8" transform="matrix(1, 0, 0, 1, 72, 104)"/>
    <rect width="8" height="8" transform="matrix(1, 0, 0, 1, 72, 112)"/>
    <rect width="8" height="8" transform="matrix(1, 0, 0, 1, 72, 120)"/>
    <rect width="8" height="8" transform="matrix(1, 0, 0, 1, 72, 128)"/>
    <rect width="8" height="8" transform="matrix(1, 0, 0, 1, 72, 160)"/>
    <rect width="8" height="8" transform="matrix(1, 0, 0, 1, 72, 192)"/>
    <rect width="8" height="8" transform="matrix(1, 0, 0, 1, 72, 208)"/>
    <rect width="8" height="8" transform="matrix(1, 0, 0, 1, 72, 256)"/>
    <rect width="8" height="8" transform="matrix(1, 0, 0, 1, 80, 32)"/>
    <rect width="8" height="8" transform="matrix(1, 0, 0, 1, 80, 40)"/>
    <rect width="8" height="8" transform="matrix(1, 0, 0, 1, 80, 48)"/>
    <rect width="8" height="8" transform="matrix(1, 0, 0, 1, 80, 56)"/>
    <rect width="8" height="8" transform="matrix(1, 0, 0, 1, 80, 64)"/>
    <rect width="8" height="8" transform="matrix(1, 0, 0, 1, 80, 72)"/>
    <rect width="8" height="8" transform="matrix(1, 0, 0, 1, 80, 80)"/>
    <rect width="8" height="8" transform="matrix(1, 0, 0, 1, 80, 96)"/>
    <rect width="8" height="8" transform="matrix(1, 0, 0, 1, 80, 112)"/>
    <rect width="8" height="8" transform="matrix(1, 0, 0, 1, 80, 128)"/>
    <rect width="8" height="8" transform="matrix(1, 0, 0, 1, 80, 144)"/>
    <rect width="8" height="8" transform="matrix(1, 0, 0, 1, 80, 160)"/>
    <rect width="8" height="8" transform="matrix(1, 0, 0, 1, 80, 176)"/>
    <rect width="8" height="8" transform="matrix(1, 0, 0, 1, 80, 192)"/>
    <rect width="8" height="8" transform="matrix(1, 0, 0, 1, 80, 208)"/>
    <rect width="8" height="8" transform="matrix(1, 0, 0, 1, 80, 216)"/>
    <rect width="8" height="8" transform="matrix(1, 0, 0, 1, 80, 224)"/>
    <rect width="8" height="8" transform="matrix(1, 0, 0, 1, 80, 232)"/>
    <rect width="8" height="8" transform="matrix(1, 0, 0, 1, 80, 240)"/>
    <rect width="8" height="8" transform="matrix(1, 0, 0, 1, 80, 248)"/>
    <rect width="8" height="8" transform="matrix(1, 0, 0, 1, 80, 256)"/>
    <rect width="8" height="8" transform="matrix(1, 0, 0, 1, 88, 112)"/>
    <rect width="8" height="8" transform="matrix(1, 0, 0, 1, 88, 120)"/>
    <rect width="8" height="8" transform="matrix(1, 0, 0, 1, 88, 136)"/>
    <rect width="8" height="8" transform="matrix(1, 0, 0, 1, 88, 152)"/>
    <rect width="8" height="8" transform="matrix(1, 0, 0, 1, 88, 160)"/>
    <rect width="8" height="8" transform="matrix(1, 0, 0, 1, 88, 168)"/>
    <rect width="8" height="8" transform="matrix(1, 0, 0, 1, 88, 176)"/>
    <rect width="8" height="8" transform="matrix(1, 0, 0, 1, 96, 32)"/>
    <rect width="8" height="8" transform="matrix(1, 0, 0, 1, 96, 48)"/>
    <rect width="8" height="8" transform="matrix(1, 0, 0, 1, 96, 56)"/>
    <rect width="8" height="8" transform="matrix(1, 0, 0, 1, 96, 64)"/>
    <rect width="8" height="8" transform="matrix(1, 0, 0, 1, 96, 80)"/>
    <rect width="8" height="8" transform="matrix(1, 0, 0, 1, 96, 96)"/>
    <rect width="8" height="8" transform="matrix(1, 0, 0, 1, 96, 144)"/>
    <rect width="8" height="8" transform="matrix(1, 0, 0, 1, 96, 176)"/>
    <rect width="8" height="8" transform="matrix(1, 0, 0, 1, 96, 184)"/>
    <rect width="8" height="8" transform="matrix(1, 0, 0, 1, 96, 192)"/>
    <rect width="8" height="8" transform="matrix(1, 0, 0, 1, 96, 200)"/>
    <rect width="8" height="8" transform="matrix(1, 0, 0, 1, 96, 232)"/>
    <rect width="8" height="8" transform="matrix(1, 0, 0, 1, 96, 240)"/>
    <rect width="8" height="8" transform="matrix(1, 0, 0, 1, 96, 248)"/>
    <rect width="8" height="8" transform="matrix(1, 0, 0, 1, 96, 256)"/>
    <rect width="8" height="8" transform="matrix(1, 0, 0, 1, 104, 32)"/>
    <rect width="8" height="8" transform="matrix(1, 0, 0, 1, 104, 56)"/>
    <rect width="8" height="8" transform="matrix(1, 0, 0, 1, 104, 64)"/>
    <rect width="8" height="8" transform="matrix(1, 0, 0, 1, 104, 72)"/>
    <rect width="8" height="8" transform="matrix(1, 0, 0, 1, 104, 88)"/>
    <rect width="8" height="8" transform="matrix(1, 0, 0, 1, 104, 104)"/>
    <rect width="8" height="8" transform="matrix(1, 0, 0, 1, 104, 128)"/>
    <rect width="8" height="8" transform="matrix(1, 0, 0, 1, 104, 144)"/>
    <rect width="8" height="8" transform="matrix(1, 0, 0, 1, 104, 176)"/>
    <rect width="8" height="8" transform="matrix(1, 0, 0, 1, 104, 184)"/>
    <rect width="8" height="8" transform="matrix(1, 0, 0, 1, 104, 208)"/>
    <rect width="8" height="8" transform="matrix(1, 0, 0, 1, 104, 216)"/>
    <rect width="8" height="8" transform="matrix(1, 0, 0, 1, 104, 224)"/>
    <rect width="8" height="8" transform="matrix(1, 0, 0, 1, 112, 64)"/>
    <rect width="8" height="8" transform="matrix(1, 0, 0, 1, 112, 80)"/>
    <rect width="8" height="8" transform="matrix(1, 0, 0, 1, 112, 136)"/>
    <rect width="8" height="8" transform="matrix(1, 0, 0, 1, 112, 152)"/>
    <rect width="8" height="8" transform="matrix(1, 0, 0, 1, 112, 168)"/>
    <rect width="8" height="8" transform="matrix(1, 0, 0, 1, 112, 176)"/>
    <rect width="8" height="8" transform="matrix(1, 0, 0, 1, 112, 184)"/>
    <rect width="8" height="8" transform="matrix(1, 0, 0, 1, 112, 224)"/>
    <rect width="8" height="8" transform="matrix(1, 0, 0, 1, 112, 232)"/>
    <rect width="8" height="8" transform="matrix(1, 0, 0, 1, 112, 240)"/>
    <rect width="8" height="8" transform="matrix(1, 0, 0, 1, 112, 256)"/>
    <rect width="8" height="8" transform="matrix(1, 0, 0, 1, 120, 48)"/>
    <rect width="8" height="8" transform="matrix(1, 0, 0, 1, 120, 56)"/>
    <rect width="8" height="8" transform="matrix(1, 0, 0, 1, 120, 64)"/>
    <rect width="8" height="8" transform="matrix(1, 0, 0, 1, 120, 88)"/>
    <rect width="8" height="8" transform="matrix(1, 0, 0, 1, 120, 120)"/>
    <rect width="8" height="8" transform="matrix(1, 0, 0, 1, 120, 128)"/>
    <rect width="8" height="8" transform="matrix(1, 0, 0, 1, 120, 136)"/>
    <rect width="8" height="8" transform="matrix(1, 0, 0, 1, 120, 160)"/>
    <rect width="8" height="8" transform="matrix(1, 0, 0, 1, 120, 176)"/>
    <rect width="8" height="8" transform="matrix(1, 0, 0, 1, 120, 192)"/>
    <rect width="8" height="8" transform="matrix(1, 0, 0, 1, 120, 208)"/>
    <rect width="8" height="8" transform="matrix(1, 0, 0, 1, 120, 232)"/>
    <rect width="8" height="8" transform="matrix(1, 0, 0, 1, 120, 240)"/>
    <rect width="8" height="8" transform="matrix(1, 0, 0, 1, 120, 248)"/>
    <rect width="8" height="8" transform="matrix(1, 0, 0, 1, 128, 48)"/>
    <rect width="8" height="8" transform="matrix(1, 0, 0, 1, 128, 72)"/>
    <rect width="8" height="8" transform="matrix(1, 0, 0, 1, 128, 80)"/>
    <rect width="8" height="8" transform="matrix(1, 0, 0, 1, 128, 120)"/>
    <rect width="8" height="8" transform="matrix(1, 0, 0, 1, 128, 144)"/>
    <rect width="8" height="8" transform="matrix(1, 0, 0, 1, 128, 152)"/>
    <rect width="8" height="8" transform="matrix(1, 0, 0, 1, 128, 168)"/>
    <rect width="8" height="8" transform="matrix(1, 0, 0, 1, 128, 176)"/>
    <rect width="8" height="8" transform="matrix(1, 0, 0, 1, 128, 184)"/>
    <rect width="8" height="8" transform="matrix(1, 0, 0, 1, 128, 192)"/>
    <rect width="8" height="8" transform="matrix(1, 0, 0, 1, 128, 200)"/>
    <rect width="8" height="8" transform="matrix(1, 0, 0, 1, 128, 208)"/>
    <rect width="8" height="8" transform="matrix(1, 0, 0, 1, 128, 224)"/>
    <rect width="8" height="8" transform="matrix(1, 0, 0, 1, 128, 232)"/>
    <rect width="8" height="8" transform="matrix(1, 0, 0, 1, 128, 256)"/>
    <rect width="8" height="8" transform="matrix(1, 0, 0, 1, 136, 40)"/>
    <rect width="8" height="8" transform="matrix(1, 0, 0, 1, 136, 48)"/>
    <rect width="8" height="8" transform="matrix(1, 0, 0, 1, 136, 64)"/>
    <rect width="8" height="8" transform="matrix(1, 0, 0, 1, 136, 88)"/>
    <rect width="8" height="8" transform="matrix(1, 0, 0, 1, 136, 96)"/>
    <rect width="8" height="8" transform="matrix(1, 0, 0, 1, 136, 120)"/>
    <rect width="8" height="8" transform="matrix(1, 0, 0, 1, 136, 136)"/>
    <rect width="8" height="8" transform="matrix(1, 0, 0, 1, 136, 152)"/>
    <rect width="8" height="8" transform="matrix(1, 0, 0, 1, 136, 168)"/>
    <rect width="8" height="8" transform="matrix(1, 0, 0, 1, 136, 192)"/>
    <rect width="8" height="8" transform="matrix(1, 0, 0, 1, 136, 200)"/>
    <rect width="8" height="8" transform="matrix(1, 0, 0, 1, 136, 208)"/>
    <rect width="8" height="8" transform="matrix(1, 0, 0, 1, 136, 240)"/>
    <rect width="8" height="8" transform="matrix(1, 0, 0, 1, 144, 32)"/>
    <rect width="8" height="8" transform="matrix(1, 0, 0, 1, 144, 48)"/>
    <rect width="8" height="8" transform="matrix(1, 0, 0, 1, 144, 64)"/>
    <rect width="8" height="8" transform="matrix(1, 0, 0, 1, 144, 72)"/>
    <rect width="8" height="8" transform="matrix(1, 0, 0, 1, 144, 80)"/>
    <rect width="8" height="8" transform="matrix(1, 0, 0, 1, 144, 88)"/>
    <rect width="8" height="8" transform="matrix(1, 0, 0, 1, 144, 96)"/>
    <rect width="8" height="8" transform="matrix(1, 0, 0, 1, 144, 112)"/>
    <rect width="8" height="8" transform="matrix(1, 0, 0, 1, 144, 120)"/>
    <rect width="8" height="8" transform="matrix(1, 0, 0, 1, 144, 144)"/>
    <rect width="8" height="8" transform="matrix(1, 0, 0, 1, 144, 200)"/>
    <rect width="8" height="8" transform="matrix(1, 0, 0, 1, 144, 224)"/>
    <rect width="8" height="8" transform="matrix(1, 0, 0, 1, 144, 232)"/>
    <rect width="8" height="8" transform="matrix(1, 0, 0, 1, 144, 248)"/>
    <rect width="8" height="8" transform="matrix(1, 0, 0, 1, 144, 256)"/>
    <rect width="8" height="8" transform="matrix(1, 0, 0, 1, 152, 48)"/>
    <rect width="8" height="8" transform="matrix(1, 0, 0, 1, 152, 88)"/>
    <rect width="8" height="8" transform="matrix(1, 0, 0, 1, 152, 120)"/>
    <rect width="8" height="8" transform="matrix(1, 0, 0, 1, 152, 128)"/>
    <rect width="8" height="8" transform="matrix(1, 0, 0, 1, 152, 136)"/>
    <rect width="8" height="8" transform="matrix(1, 0, 0, 1, 152, 168)"/>
    <rect width="8" height="8" transform="matrix(1, 0, 0, 1, 152, 176)"/>
    <rect width="8" height="8" transform="matrix(1, 0, 0, 1, 152, 192)"/>
    <rect width="8" height="8" transform="matrix(1, 0, 0, 1, 152, 200)"/>
    <rect width="8" height="8" transform="matrix(1, 0, 0, 1, 152, 224)"/>
    <rect width="8" height="8" transform="matrix(1, 0, 0, 1, 152, 248)"/>
    <rect width="8" height="8" transform="matrix(1, 0, 0, 1, 160, 48)"/>
    <rect width="8" height="8" transform="matrix(1, 0, 0, 1, 160, 56)"/>
    <rect width="8" height="8" transform="matrix(1, 0, 0, 1, 160, 64)"/>
    <rect width="8" height="8" transform="matrix(1, 0, 0, 1, 160, 80)"/>
    <rect width="8" height="8" transform="matrix(1, 0, 0, 1, 160, 88)"/>
    <rect width="8" height="8" transform="matrix(1, 0, 0, 1, 160, 128)"/>
    <rect width="8" height="8" transform="matrix(1, 0, 0, 1, 160, 144)"/>
    <rect width="8" height="8" transform="matrix(1, 0, 0, 1, 160, 152)"/>
    <rect width="8" height="8" transform="matrix(1, 0, 0, 1, 160, 160)"/>
    <rect width="8" height="8" transform="matrix(1, 0, 0, 1, 160, 176)"/>
    <rect width="8" height="8" transform="matrix(1, 0, 0, 1, 160, 184)"/>
    <rect width="8" height="8" transform="matrix(1, 0, 0, 1, 160, 192)"/>
    <rect width="8" height="8" transform="matrix(1, 0, 0, 1, 160, 200)"/>
    <rect width="8" height="8" transform="matrix(1, 0, 0, 1, 160, 224)"/>
    <rect width="8" height="8" transform="matrix(1, 0, 0, 1, 160, 232)"/>
    <rect width="8" height="8" transform="matrix(1, 0, 0, 1, 168, 88)"/>
    <rect width="8" height="8" transform="matrix(1, 0, 0, 1, 168, 96)"/>
    <rect width="8" height="8" transform="matrix(1, 0, 0, 1, 168, 128)"/>
    <rect width="8" height="8" transform="matrix(1, 0, 0, 1, 168, 136)"/>
    <rect width="8" height="8" transform="matrix(1, 0, 0, 1, 168, 144)"/>
    <rect width="8" height="8" transform="matrix(1, 0, 0, 1, 168, 184)"/>
    <rect width="8" height="8" transform="matrix(1, 0, 0, 1, 168, 192)"/>
    <rect width="8" height="8" transform="matrix(1, 0, 0, 1, 168, 232)"/>
    <rect width="8" height="8" transform="matrix(1, 0, 0, 1, 168, 240)"/>
    <rect width="8" height="8" transform="matrix(1, 0, 0, 1, 168, 256)"/>
    <rect width="8" height="8" transform="matrix(1, 0, 0, 1, 176, 32)"/>
    <rect width="8" height="8" transform="matrix(1, 0, 0, 1, 176, 40)"/>
    <rect width="8" height="8" transform="matrix(1, 0, 0, 1, 176, 48)"/>
    <rect width="8" height="8" transform="matrix(1, 0, 0, 1, 176, 80)"/>
    <rect width="8" height="8" transform="matrix(1, 0, 0, 1, 176, 96)"/>
    <rect width="8" height="8" transform="matrix(1, 0, 0, 1, 176, 104)"/>
    <rect width="8" height="8" transform="matrix(1, 0, 0, 1, 176, 152)"/>
    <rect width="8" height="8" transform="matrix(1, 0, 0, 1, 176, 168)"/>
    <rect width="8" height="8" transform="matrix(1, 0, 0, 1, 176, 216)"/>
    <rect width="8" height="8" transform="matrix(1, 0, 0, 1, 176, 232)"/>
    <rect width="8" height="8" transform="matrix(1, 0, 0, 1, 176, 240)"/>
    <rect width="8" height="8" transform="matrix(1, 0, 0, 1, 176, 248)"/>
    <rect width="8" height="8" transform="matrix(1, 0, 0, 1, 176, 256)"/>
    <rect width="8" height="8" transform="matrix(1, 0, 0, 1, 184, 56)"/>
    <rect width="8" height="8" transform="matrix(1, 0, 0, 1, 184, 64)"/>
    <rect width="8" height="8" transform="matrix(1, 0, 0, 1, 184, 72)"/>
    <rect width="8" height="8" transform="matrix(1, 0, 0, 1, 184, 88)"/>
    <rect width="8" height="8" transform="matrix(1, 0, 0, 1, 184, 104)"/>
    <rect width="8" height="8" transform="matrix(1, 0, 0, 1, 184, 128)"/>
    <rect width="8" height="8" transform="matrix(1, 0, 0, 1, 184, 136)"/>
    <rect width="8" height="8" transform="matrix(1, 0, 0, 1, 184, 144)"/>
    <rect width="8" height="8" transform="matrix(1, 0, 0, 1, 184, 152)"/>
    <rect width="8" height="8" transform="matrix(1, 0, 0, 1, 184, 192)"/>
    <rect width="8" height="8" transform="matrix(1, 0, 0, 1, 184, 200)"/>
    <rect width="8" height="8" transform="matrix(1, 0, 0, 1, 184, 208)"/>
    <rect width="8" height="8" transform="matrix(1, 0, 0, 1, 184, 232)"/>
    <rect width="8" height="8" transform="matrix(1, 0, 0, 1, 184, 240)"/>
    <rect width="8" height="8" transform="matrix(1, 0, 0, 1, 184, 256)"/>
    <rect width="8" height="8" transform="matrix(1, 0, 0, 1, 192, 32)"/>
    <rect width="8" height="8" transform="matrix(1, 0, 0, 1, 192, 40)"/>
    <rect width="8" height="8" transform="matrix(1, 0, 0, 1, 192, 56)"/>
    <rect width="8" height="8" transform="matrix(1, 0, 0, 1, 192, 80)"/>
    <rect width="8" height="8" transform="matrix(1, 0, 0, 1, 192, 104)"/>
    <rect width="8" height="8" transform="matrix(1, 0, 0, 1, 192, 120)"/>
    <rect width="8" height="8" transform="matrix(1, 0, 0, 1, 192, 136)"/>
    <rect width="8" height="8" transform="matrix(1, 0, 0, 1, 192, 144)"/>
    <rect width="8" height="8" transform="matrix(1, 0, 0, 1, 192, 168)"/>
    <rect width="8" height="8" transform="matrix(1, 0, 0, 1, 192, 184)"/>
    <rect width="8" height="8" transform="matrix(1, 0, 0, 1, 192, 192)"/>
    <rect width="8" height="8" transform="matrix(1, 0, 0, 1, 192, 200)"/>
    <rect width="8" height="8" transform="matrix(1, 0, 0, 1, 192, 208)"/>
    <rect width="8" height="8" transform="matrix(1, 0, 0, 1, 192, 216)"/>
    <rect width="8" height="8" transform="matrix(1, 0, 0, 1, 192, 224)"/>
    <rect width="8" height="8" transform="matrix(1, 0, 0, 1, 192, 232)"/>
    <rect width="8" height="8" transform="matrix(1, 0, 0, 1, 192, 248)"/>
    <rect width="8" height="8" transform="matrix(1, 0, 0, 1, 192, 256)"/>
    <rect width="8" height="8" transform="matrix(1, 0, 0, 1, 200, 96)"/>
    <rect width="8" height="8" transform="matrix(1, 0, 0, 1, 200, 104)"/>
    <rect width="8" height="8" transform="matrix(1, 0, 0, 1, 200, 112)"/>
    <rect width="8" height="8" transform="matrix(1, 0, 0, 1, 200, 120)"/>
    <rect width="8" height="8" transform="matrix(1, 0, 0, 1, 200, 144)"/>
    <rect width="8" height="8" transform="matrix(1, 0, 0, 1, 200, 152)"/>
    <rect width="8" height="8" transform="matrix(1, 0, 0, 1, 200, 184)"/>
    <rect width="8" height="8" transform="matrix(1, 0, 0, 1, 200, 192)"/>
    <rect width="8" height="8" transform="matrix(1, 0, 0, 1, 200, 224)"/>
    <rect width="8" height="8" transform="matrix(1, 0, 0, 1, 200, 232)"/>
    <rect width="8" height="8" transform="matrix(1, 0, 0, 1, 200, 256)"/>
    <rect width="8" height="8" transform="matrix(1, 0, 0, 1, 208, 32)"/>
    <rect width="8" height="8" transform="matrix(1, 0, 0, 1, 208, 40)"/>
    <rect width="8" height="8" transform="matrix(1, 0, 0, 1, 208, 48)"/>
    <rect width="8" height="8" transform="matrix(1, 0, 0, 1, 208, 56)"/>
    <rect width="8" height="8" transform="matrix(1, 0, 0, 1, 208, 64)"/>
    <rect width="8" height="8" transform="matrix(1, 0, 0, 1, 208, 72)"/>
    <rect width="8" height="8" transform="matrix(1, 0, 0, 1, 208, 80)"/>
    <rect width="8" height="8" transform="matrix(1, 0, 0, 1, 208, 104)"/>
    <rect width="8" height="8" transform="matrix(1, 0, 0, 1, 208, 136)"/>
    <rect width="8" height="8" transform="matrix(1, 0, 0, 1, 208, 176)"/>
    <rect width="8" height="8" transform="matrix(1, 0, 0, 1, 208, 184)"/>
    <rect width="8" height="8" transform="matrix(1, 0, 0, 1, 208, 192)"/>
    <rect width="8" height="8" transform="matrix(1, 0, 0, 1, 208, 208)"/>
    <rect width="8" height="8" transform="matrix(1, 0, 0, 1, 208, 224)"/>
    <rect width="8" height="8" transform="matrix(1, 0, 0, 1, 208, 248)"/>
    <rect width="8" height="8" transform="matrix(1, 0, 0, 1, 216, 32)"/>
    <rect width="8" height="8" transform="matrix(1, 0, 0, 1, 216, 80)"/>
    <rect width="8" height="8" transform="matrix(1, 0, 0, 1, 216, 104)"/>
    <rect width="8" height="8" transform="matrix(1, 0, 0, 1, 216, 112)"/>
    <rect width="8" height="8" transform="matrix(1, 0, 0, 1, 216, 120)"/>
    <rect width="8" height="8" transform="matrix(1, 0, 0, 1, 216, 136)"/>
    <rect width="8" height="8" transform="matrix(1, 0, 0, 1, 216, 144)"/>
    <rect width="8" height="8" transform="matrix(1, 0, 0, 1, 216, 152)"/>
    <rect width="8" height="8" transform="matrix(1, 0, 0, 1, 216, 160)"/>
    <rect width="8" height="8" transform="matrix(1, 0, 0, 1, 216, 168)"/>
    <rect width="8" height="8" transform="matrix(1, 0, 0, 1, 216, 176)"/>
    <rect width="8" height="8" transform="matrix(1, 0, 0, 1, 216, 192)"/>
    <rect width="8" height="8" transform="matrix(1, 0, 0, 1, 216, 224)"/>
    <rect width="8" height="8" transform="matrix(1, 0, 0, 1, 216, 232)"/>
    <rect width="8" height="8" transform="matrix(1, 0, 0, 1, 216, 240)"/>
    <rect width="8" height="8" transform="matrix(1, 0, 0, 1, 216, 248)"/>
    <rect width="8" height="8" transform="matrix(1, 0, 0, 1, 224, 32)"/>
    <rect width="8" height="8" transform="matrix(1, 0, 0, 1, 224, 48)"/>
    <rect width="8" height="8" transform="matrix(1, 0, 0, 1, 224, 56)"/>
    <rect width="8" height="8" transform="matrix(1, 0, 0, 1, 224, 64)"/>
    <rect width="8" height="8" transform="matrix(1, 0, 0, 1, 224, 80)"/>
    <rect width="8" height="8" transform="matrix(1, 0, 0, 1, 224, 96)"/>
    <rect width="8" height="8" transform="matrix(1, 0, 0, 1, 224, 104)"/>
    <rect width="8" height="8" transform="matrix(1, 0, 0, 1, 224, 112)"/>
    <rect width="8" height="8" transform="matrix(1, 0, 0, 1, 224, 120)"/>
    <rect width="8" height="8" transform="matrix(1, 0, 0, 1, 224, 144)"/>
    <rect width="8" height="8" transform="matrix(1, 0, 0, 1, 224, 160)"/>
    <rect width="8" height="8" transform="matrix(1, 0, 0, 1, 224, 184)"/>
    <rect width="8" height="8" transform="matrix(1, 0, 0, 1, 224, 192)"/>
    <rect width="8" height="8" transform="matrix(1, 0, 0, 1, 224, 200)"/>
    <rect width="8" height="8" transform="matrix(1, 0, 0, 1, 224, 208)"/>
    <rect width="8" height="8" transform="matrix(1, 0, 0, 1, 224, 216)"/>
    <rect width="8" height="8" transform="matrix(1, 0, 0, 1, 224, 224)"/>
    <rect width="8" height="8" transform="matrix(1, 0, 0, 1, 224, 232)"/>
    <rect width="8" height="8" transform="matrix(1, 0, 0, 1, 232, 32)"/>
    <rect width="8" height="8" transform="matrix(1, 0, 0, 1, 232, 48)"/>
    <rect width="8" height="8" transform="matrix(1, 0, 0, 1, 232, 56)"/>
    <rect width="8" height="8" transform="matrix(1, 0, 0, 1, 232, 64)"/>
    <rect width="8" height="8" transform="matrix(1, 0, 0, 1, 232, 80)"/>
    <rect width="8" height="8" transform="matrix(1, 0, 0, 1, 232, 96)"/>
    <rect width="8" height="8" transform="matrix(1, 0, 0, 1, 232, 128)"/>
    <rect width="8" height="8" transform="matrix(1, 0, 0, 1, 232, 160)"/>
    <rect width="8" height="8" transform="matrix(1, 0, 0, 1, 232, 168)"/>
    <rect width="8" height="8" transform="matrix(1, 0, 0, 1, 232, 192)"/>
    <rect width="8" height="8" transform="matrix(1, 0, 0, 1, 232, 200)"/>
    <rect width="8" height="8" transform="matrix(1, 0, 0, 1, 232, 208)"/>
    <rect width="8" height="8" transform="matrix(1, 0, 0, 1, 232, 216)"/>
    <rect width="8" height="8" transform="matrix(1, 0, 0, 1, 232, 232)"/>
    <rect width="8" height="8" transform="matrix(1, 0, 0, 1, 232, 248)"/>
    <rect width="8" height="8" transform="matrix(1, 0, 0, 1, 240, 32)"/>
    <rect width="8" height="8" transform="matrix(1, 0, 0, 1, 240, 48)"/>
    <rect width="8" height="8" transform="matrix(1, 0, 0, 1, 240, 56)"/>
    <rect width="8" height="8" transform="matrix(1, 0, 0, 1, 240, 64)"/>
    <rect width="8" height="8" transform="matrix(1, 0, 0, 1, 240, 80)"/>
    <rect width="8" height="8" transform="matrix(1, 0, 0, 1, 240, 96)"/>
    <rect width="8" height="8" transform="matrix(1, 0, 0, 1, 240, 112)"/>
    <rect width="8" height="8" transform="matrix(1, 0, 0, 1, 240, 128)"/>
    <rect width="8" height="8" transform="matrix(1, 0, 0, 1, 240, 136)"/>
    <rect width="8" height="8" transform="matrix(1, 0, 0, 1, 240, 144)"/>
    <rect width="8" height="8" transform="matrix(1, 0, 0, 1, 240, 168)"/>
    <rect width="8" height="8" transform="matrix(1, 0, 0, 1, 240, 176)"/>
    <rect width="8" height="8" transform="matrix(1, 0, 0, 1, 240, 184)"/>
    <rect width="8" height="8" transform="matrix(1, 0, 0, 1, 240, 192)"/>
    <rect width="8" height="8" transform="matrix(1, 0, 0, 1, 240, 200)"/>
    <rect width="8" height="8" transform="matrix(1, 0, 0, 1, 240, 224)"/>
    <rect width="8" height="8" transform="matrix(1, 0, 0, 1, 240, 240)"/>
    <rect width="8" height="8" transform="matrix(1, 0, 0, 1, 248, 32)"/>
    <rect width="8" height="8" transform="matrix(1, 0, 0, 1, 248, 80)"/>
    <rect width="8" height="8" transform="matrix(1, 0, 0, 1, 248, 112)"/>
    <rect width="8" height="8" transform="matrix(1, 0, 0, 1, 248, 136)"/>
    <rect width="8" height="8" transform="matrix(1, 0, 0, 1, 248, 144)"/>
    <rect width="8" height="8" transform="matrix(1, 0, 0, 1, 248, 152)"/>
    <rect width="8" height="8" transform="matrix(1, 0, 0, 1, 248, 160)"/>
    <rect width="8" height="8" transform="matrix(1, 0, 0, 1, 248, 168)"/>
    <rect width="8" height="8" transform="matrix(1, 0, 0, 1, 248, 200)"/>
    <rect width="8" height="8" transform="matrix(1, 0, 0, 1, 248, 208)"/>
    <rect width="8" height="8" transform="matrix(1, 0, 0, 1, 248, 216)"/>
    <rect width="8" height="8" transform="matrix(1, 0, 0, 1, 248, 248)"/>
    <rect width="8" height="8" transform="matrix(1, 0, 0, 1, 248, 256)"/>
    <rect width="8" height="8" transform="matrix(1, 0, 0, 1, 256, 32)"/>
    <rect width="8" height="8" transform="matrix(1, 0, 0, 1, 256, 40)"/>
    <rect width="8" height="8" transform="matrix(1, 0, 0, 1, 256, 48)"/>
    <rect width="8" height="8" transform="matrix(1, 0, 0, 1, 256, 56)"/>
    <rect width="8" height="8" transform="matrix(1, 0, 0, 1, 256, 64)"/>
    <rect width="8" height="8" transform="matrix(1, 0, 0, 1, 256, 72)"/>
    <rect width="8" height="8" transform="matrix(1, 0, 0, 1, 256, 80)"/>
    <rect width="8" height="8" transform="matrix(1, 0, 0, 1, 256, 96)"/>
    <rect width="8" height="8" transform="matrix(1, 0, 0, 1, 256, 104)"/>
    <rect width="8" height="8" transform="matrix(1, 0, 0, 1, 256, 120)"/>
    <rect width="8" height="8" transform="matrix(1, 0, 0, 1, 256, 136)"/>
    <rect width="8" height="8" transform="matrix(1, 0, 0, 1, 256, 144)"/>
    <rect width="8" height="8" transform="matrix(1, 0, 0, 1, 256, 200)"/>
    <rect width="8" height="8" transform="matrix(1, 0, 0, 1, 256, 216)"/>
    <rect width="8" height="8" transform="matrix(1, 0, 0, 1, 256, 232)"/>
    <rect width="8" height="8" transform="matrix(1, 0, 0, 1, 256, 240)"/>
  </g>
  <g/>
</svg>